<svg version="1.2" xmlns="http://www.w3.org/2000/svg" viewBox="0 0 544 540" width="544" height="540"><defs><linearGradient id="P" gradientUnits="userSpaceOnUse"/><linearGradient id="g1" x1="361.3" y1="-67.5" x2="522.2" y2="423.8" href="#P"><stop stop-color="#1f3246"/><stop offset="1" stop-color="#151b22"/></linearGradient><linearGradient id="g2" x1="338.5" y1="-54.2" x2="619.5" y2="187.2" href="#P"><stop stop-color="#223c56"/><stop offset="1" stop-color="#151b22"/></linearGradient><linearGradient id="g3" x1="486.6" y1="170.4" x2="430.6" y2="239.1" href="#P"><stop stop-color="#ff7641"/><stop offset="1" stop-color="#ff4735"/></linearGradient><linearGradient id="g4" x1="473.6" y1="89.9" x2="478.2" y2="103.6" href="#P"><stop stop-color="#ff7641"/><stop offset="1" stop-color="#ff4735"/></linearGradient><linearGradient id="g5" x1="131.4" y1="25.1" x2="168.9" y2="190.9" href="#P"><stop stop-color="#223c56"/><stop offset="1" stop-color="#151b22"/></linearGradient><linearGradient id="g6" x1="125" y1="62.6" x2="113.8" y2="104.3" href="#P"><stop stop-color="#ff7641"/><stop offset="1" stop-color="#ff4735"/></linearGradient><linearGradient id="g7" x1="51.6" y1="243.9" x2="62.9" y2="321.6" href="#P"><stop stop-color="#223c56"/><stop offset="1" stop-color="#151b22"/></linearGradient><linearGradient id="g8" x1="118.9" y1="167.4" x2="78.7" y2="233" href="#P"><stop stop-color="#ff7641"/><stop offset="1" stop-color="#ff4735"/></linearGradient><linearGradient id="g9" x1="103.4" y1="338" x2="113.3" y2="434" href="#P"><stop stop-color="#223c56"/><stop offset="1" stop-color="#151b22"/></linearGradient><linearGradient id="g10" x1="224.3" y1="175.3" x2="402.1" y2="328.2" href="#P"><stop stop-color="#223c56"/><stop offset="1" stop-color="#151b22"/></linearGradient><linearGradient id="g11" x1="186.1" y1="276.9" x2="186.1" y2="371.6" href="#P"><stop stop-color="#ff7641"/><stop offset="1" stop-color="#ff4735"/></linearGradient><linearGradient id="g12" x1="209.8" y1="276.9" x2="209.8" y2="371.6" href="#P"><stop stop-color="#ff7641"/><stop offset="1" stop-color="#ff4735"/></linearGradient><linearGradient id="g13" x1="233.4" y1="276.9" x2="233.4" y2="371.6" href="#P"><stop stop-color="#ff7641"/><stop offset="1" stop-color="#ff4735"/></linearGradient><linearGradient id="g14" x1="257.1" y1="276.9" x2="257.1" y2="371.6" href="#P"><stop stop-color="#ff7641"/><stop offset="1" stop-color="#ff4735"/></linearGradient><linearGradient id="g15" x1="406.3" y1="277.4" x2="431.7" y2="516.7" href="#P"><stop stop-color="#ff7641"/><stop offset="1" stop-color="#ff4735"/></linearGradient><clipPath clipPathUnits="userSpaceOnUse" id="cp1"><path d="m231.27 464.14c0 33.19-26.9 60.09-60.08 60.09-33.19 0-60.09-26.9-60.09-60.09 0-33.18 26.9-60.08 60.09-60.08 33.18 0 60.08 26.9 60.08 60.08z"/></clipPath><linearGradient id="g16" x1="261.2" y1="482.6" x2="239.1" y2="426.6" href="#P"><stop stop-color="#ff7641"/><stop offset="1" stop-color="#ff4735"/></linearGradient><linearGradient id="g17" x1="510.6" y1="28.9" x2="532.6" y2="85" href="#P"><stop stop-color="#ff7641"/><stop offset="1" stop-color="#ff4735"/></linearGradient></defs><style>tspan{white-space:pre}.a{fill:none;stroke:#f9fbfc;stroke-width:.5}.b{fill:#ff4237}.c{fill:none;stroke:#f9fbfc;stroke-linecap:round;stroke-linejoin:round;stroke-width:1.1;stroke-dasharray:2,6}.d{opacity:0;fill:#843ea1}.e{opacity:.1;fill:#843ea1}.f{opacity:.2;fill:#843ea1}.g{opacity:.3;fill:#843ea1}.h{opacity:.4;fill:#843ea1}.i{opacity:.5;fill:#843ea1}.j{opacity:.6;fill:#843ea1}.k{opacity:.7;fill:#843ea1}.l{opacity:.8;fill:#843ea1}.m{opacity:.9;fill:#843ea1}.n{opacity:1;fill:#843ea1}.o{fill:#843ea1}.p{opacity:0;fill:#5f3b92}.q{opacity:.1;fill:#5f3b92}.r{opacity:.2;fill:#5f3b92}.s{opacity:.3;fill:#5f3b92}.t{opacity:.4;fill:#5f3b92}.u{opacity:.5;fill:#5f3b92}.v{opacity:.6;fill:#5f3b92}.w{opacity:.7;fill:#5f3b92}.x{opacity:.8;fill:#5f3b92}.y{opacity:.9;fill:#5f3b92}.z{opacity:1;fill:#5f3b92}.A{fill:#5f3b92}.B{fill:url(#g1)}.C{fill:url(#g2)}.D{fill:#3f4f5a}.E{fill:#323f47}.F{fill:url(#g3)}.G{font-size: 7px;fill: #eaeeee;font-weight: 700;font-family: "Aileron-Bold", "Aileron"}.H{fill:url(#g4)}.I{fill:#60798a}.J{font-size: 4px;fill: #60798a;font-weight: 400;font-family: "Aileron-Regular", "Aileron"}.K{font-size: 3px;fill: #60798a;font-weight: 400;font-family: "Aileron-Regular", "Aileron"}.L{font-size: 9px;fill: #eaeeee;font-weight: 700;font-family: "Aileron-Bold", "Aileron"}.M{font-size: 5px;fill: #2db985;font-weight: 700;font-family: "Aileron-Bold", "Aileron"}.N{fill:none;stroke:#f9fbfc;stroke-linecap:round;stroke-linejoin:round;stroke-width:2}.O{fill:url(#g5)}.P{fill:url(#g6)}.Q{opacity:0;fill:#212972}.R{opacity:.1;fill:#212972}.S{opacity:.2;fill:#212972}.T{opacity:.3;fill:#212972}.U{opacity:.4;fill:#212972}.V{opacity:.5;fill:#212972}.W{opacity:.6;fill:#212972}.X{opacity:.7;fill:#212972}.Y{opacity:.8;fill:#212972}.Z{opacity:.9;fill:#212972}.a0{opacity:1;fill:#212972}.a1{fill:#212972}.a2{fill:url(#g7)}.a3{fill:url(#g8)}.a4{fill:#eaeeee}.a5{fill:url(#g9)}.a6{fill:url(#g10)}.a7{fill:url(#g11)}.a8{fill:url(#g12)}.a9{fill:url(#g13)}.aa{fill:url(#g14)}.ab{opacity:0;fill:#282a57}.ac{opacity:.1;fill:#282a57}.ad{opacity:.2;fill:#282a57}.ae{opacity:.3;fill:#282a57}.af{opacity:.4;fill:#282a57}.ag{opacity:.5;fill:#282a57}.ah{opacity:.6;fill:#282a57}.ai{opacity:.7;fill:#282a57}.aj{opacity:.8;fill:#282a57}.ak{opacity:.9;fill:#282a57}.al{opacity:1;fill:#282a57}.am{fill:#282a57}.an{fill:url(#g15)}.ao{fill:#eff4ff}.ap{fill:none;stroke:#f9fbfc;stroke-linecap:round;stroke-linejoin:round;stroke-width:2.2}.aq{fill:none;stroke:#f9fbfc;stroke-linecap:round;stroke-linejoin:round;stroke-width:2.2;stroke-dasharray:0,11}.ar{fill:none;stroke:#ff4237;stroke-linecap:round;stroke-linejoin:round;stroke-width:2.2}.as{fill:none;stroke:#ff4237;stroke-linecap:round;stroke-linejoin:round;stroke-width:2.2;stroke-dasharray:0,11}.at{fill:#252f36}.au{fill:none;stroke:#f9fbfc;stroke-width:.7}.av{fill:#fdfdfd}.aw{fill:url(#g16)}.ax{fill:url(#g17)}</style><path class="a" d="m386.2 142.9h-4.1v-4.1h4.1z"/><path class="a" d="m417.5 142.9h-4.1v-4.1h4.1z"/><path class="a" d="m448.8 142.9h-4.1v-4.1h4.1z"/><path class="a" d="m480.1 142.9h-4.1v-4.1h4.1z"/><path class="a" d="m511.4 142.9h-4.1v-4.1h4.1z"/><path class="a" d="m542.7 142.9h-4.1v-4.1h4.1z"/><path class="a" d="m386.2 165.7h-4.1v-4.1h4.1z"/><path class="a" d="m417.5 165.7h-4.1v-4.1h4.1z"/><path class="a" d="m448.8 165.7h-4.1v-4.1h4.1z"/><path class="a" d="m480.1 165.7h-4.1v-4.1h4.1z"/><path class="a" d="m511.4 165.7h-4.1v-4.1h4.1z"/><path class="a" d="m542.7 165.7h-4.1v-4.1h4.1z"/><path class="a" d="m386.2 188.5h-4.1v-4h4.1z"/><path class="a" d="m417.5 188.5h-4.1v-4h4.1z"/><path class="a" d="m448.8 188.5h-4.1v-4h4.1z"/><path class="a" d="m480.1 188.5h-4.1v-4h4.1z"/><path class="a" d="m511.4 188.5h-4.1v-4h4.1z"/><path class="a" d="m542.7 188.5h-4.1v-4h4.1z"/><path class="a" d="m386.2 211.4h-4.1v-4.1h4.1z"/><path class="a" d="m417.5 211.4h-4.1v-4.1h4.1z"/><path class="a" d="m448.8 211.4h-4.1v-4.1h4.1z"/><path class="a" d="m480.1 211.4h-4.1v-4.1h4.1z"/><path class="a" d="m511.4 211.4h-4.1v-4.1h4.1z"/><path class="a" d="m542.7 211.4h-4.1v-4.1h4.1z"/><path class="a" d="m386.2 234.2h-4.1v-4.1h4.1z"/><path class="b" d="m417.5 234.2h-4.1v-4.1h4.1z"/><path class="b" d="m448.8 234.2h-4.1v-4.1h4.1z"/><path class="a" d="m480.1 234.2h-4.1v-4.1h4.1z"/><path class="a" d="m511.4 234.2h-4.1v-4.1h4.1z"/><path class="a" d="m542.7 234.2h-4.1v-4.1h4.1z"/><path class="a" d="m386.2 257h-4.1v-4.1h4.1z"/><path class="a" d="m417.5 257h-4.1v-4.1h4.1z"/><path class="a" d="m448.8 257h-4.1v-4.1h4.1z"/><path class="b" d="m480.1 257h-4.1v-4.1h4.1z"/><path class="a" d="m511.4 257h-4.1v-4.1h4.1z"/><path class="a" d="m542.7 257h-4.1v-4.1h4.1z"/><path class="a" d="m386.2 279.8h-4.1v-4.1h4.1z"/><path class="a" d="m417.5 279.8h-4.1v-4.1h4.1z"/><path class="a" d="m448.8 279.8h-4.1v-4.1h4.1z"/><path class="a" d="m480.1 279.8h-4.1v-4.1h4.1z"/><path class="b" d="m511.4 279.8h-4.1v-4.1h4.1z"/><path class="a" d="m542.7 279.8h-4.1v-4.1h4.1z"/><path class="c" d="m286.5 273.5c0 71.3-57.8 129.1-129.1 129.1-71.3 0-129.1-57.8-129.1-129.1 0-71.3 57.8-129.1 129.1-129.1 71.3 0 129.1 57.8 129.1 129.1z"/><g style="opacity:.3"><g style="opacity:.5;mix-blend-mode:multiply"><path class="d" d="m377.3 540.8h-153.1c-29.7 0-53.8-24.1-53.8-53.8v-380.2c0-29.7 24.1-53.8 53.8-53.8h153.1c29.7 0 53.8 24.1 53.8 53.8v380.2c0 29.7-24.1 53.8-53.8 53.8z"/><path class="d" d="m376.7 539.9h-151.9c-29.3 0-53-23.8-53-53.1v-379.8c0-29.3 23.7-53.1 53-53.1h151.9c29.3 0 53 23.8 53 53.1v379.8c0 29.3-23.7 53.1-53 53.1z"/><path class="d" d="m376.1 538.9h-150.7c-28.9 0-52.3-23.4-52.3-52.2v-379.5c0-28.9 23.4-52.3 52.3-52.3h150.7c28.9 0 52.3 23.4 52.3 52.3v379.5c0 28.8-23.4 52.2-52.3 52.2z"/><path class="e" d="m375.6 538h-149.7c-28.4 0-51.4-23.1-51.4-51.5v-379.2c0-28.4 23-51.5 51.4-51.5h149.7c28.4 0 51.4 23.1 51.4 51.5v379.2c0 28.4-23 51.5-51.4 51.5z"/><path class="e" d="m375 537h-148.5c-28 0-50.7-22.7-50.7-50.6v-378.9c0-28 22.7-50.7 50.7-50.7h148.5c28 0 50.7 22.7 50.7 50.7v378.9c0 27.9-22.7 50.6-50.7 50.6z"/><path class="e" d="m374.4 536.1h-147.3c-27.6 0-49.9-22.4-49.9-49.9v-378.6c0-27.5 22.3-49.8 49.9-49.8h147.3c27.6 0 49.9 22.3 49.9 49.8v378.6c0 27.5-22.3 49.9-49.9 49.9z"/><path class="e" d="m373.9 535.1h-146.3c-27.1 0-49-22-49-49.1v-378.2c0-27.1 21.9-49.1 49-49.1h146.3c27.1 0 49 22 49 49.1v378.2c0 27.1-21.9 49.1-49 49.1z"/><path class="e" d="m373.3 534.2h-145.1c-26.7 0-48.3-21.6-48.3-48.3v-378c0-26.6 21.6-48.2 48.3-48.2h145.1c26.7 0 48.3 21.6 48.3 48.2v378c0 26.7-21.6 48.3-48.3 48.3z"/><path class="f" d="m372.7 533.2h-143.9c-26.2 0-47.5-21.2-47.5-47.5v-377.6c0-26.2 21.3-47.5 47.5-47.5h143.9c26.2 0 47.5 21.3 47.5 47.5v377.6c0 26.3-21.3 47.5-47.5 47.5z"/><path class="f" d="m372.2 532.3h-142.9c-25.7 0-46.6-20.9-46.6-46.7v-377.4c0-25.7 20.9-46.6 46.6-46.6h142.9c25.7 0 46.6 20.9 46.6 46.6v377.4c0 25.8-20.9 46.7-46.6 46.7z"/><path class="f" d="m371.6 531.3h-141.7c-25.3 0-45.9-20.5-45.9-45.9v-377c0-25.3 20.6-45.9 45.9-45.9h141.7c25.3 0 45.9 20.6 45.9 45.9v377c0 25.4-20.6 45.9-45.9 45.9z"/><path class="f" d="m371 530.4h-140.5c-24.9 0-45.1-20.2-45.1-45.1v-376.7c0-25 20.2-45.1 45.1-45.1h140.5c24.9 0 45.1 20.1 45.1 45.1v376.7c0 24.9-20.2 45.1-45.1 45.1z"/><path class="f" d="m370.5 529.4h-139.5c-24.4 0-44.3-19.8-44.3-44.3v-376.4c0-24.5 19.9-44.3 44.3-44.3h139.5c24.4 0 44.3 19.8 44.3 44.3v376.4c0 24.5-19.9 44.3-44.3 44.3z"/><path class="g" d="m369.9 528.5h-138.3c-24 0-43.5-19.5-43.5-43.5v-376.1c0-24.1 19.5-43.5 43.5-43.5h138.3c24 0 43.5 19.4 43.5 43.5v376.1c0 24-19.5 43.5-43.5 43.5z"/><path class="g" d="m369.3 527.5h-137.1c-23.6 0-42.7-19.1-42.7-42.7v-375.8c0-23.6 19.1-42.7 42.7-42.7h137.1c23.6 0 42.7 19.1 42.7 42.7v375.8c0 23.6-19.1 42.7-42.7 42.7z"/><path class="g" d="m368.8 526.6h-136.1c-23.1 0-41.9-18.8-41.9-41.9v-375.5c0-23.2 18.8-41.9 41.9-41.9h136.1c23.1 0 41.9 18.7 41.9 41.9v375.5c0 23.1-18.8 41.9-41.9 41.9z"/><path class="g" d="m368.2 525.6h-134.9c-22.7 0-41.1-18.4-41.1-41.1v-375.2c0-22.7 18.4-41.1 41.1-41.1h134.9c22.7 0 41.1 18.4 41.1 41.1v375.2c0 22.7-18.4 41.1-41.1 41.1z"/><path class="g" d="m367.6 524.7h-133.7c-22.3 0-40.3-18.1-40.3-40.4v-374.8c0-22.3 18-40.3 40.3-40.3h133.7c22.3 0 40.3 18 40.3 40.3v374.8c0 22.3-18 40.4-40.3 40.4z"/><path class="h" d="m367.1 523.7h-132.7c-21.8 0-39.5-17.7-39.5-39.5v-374.6c0-21.8 17.7-39.5 39.5-39.5h132.7c21.8 0 39.5 17.7 39.5 39.5v374.6c0 21.8-17.7 39.5-39.5 39.5z"/><path class="h" d="m366.5 522.8h-131.5c-21.4 0-38.7-17.4-38.7-38.8v-374.2c0-21.4 17.3-38.7 38.7-38.7h131.5c21.4 0 38.7 17.3 38.7 38.7v374.2c0 21.4-17.3 38.8-38.7 38.8z"/><path class="h" d="m365.9 521.8h-130.3c-21 0-38-17-38-37.9v-374c0-20.9 17-37.9 38-37.9h130.3c21 0 38 17 38 37.9v374c0 20.9-17 37.9-38 37.9z"/><path class="h" d="m365.4 520.8h-129.3c-20.5 0-37.1-16.6-37.1-37.1v-373.6c0-20.5 16.6-37.1 37.1-37.1h129.3c20.5 0 37.1 16.6 37.1 37.1v373.6c0 20.5-16.6 37.1-37.1 37.1z"/><path class="h" d="m364.8 519.9h-128.1c-20.1 0-36.3-16.3-36.3-36.3v-373.3c0-20.1 16.2-36.4 36.3-36.4h128.1c20.1 0 36.3 16.3 36.3 36.4v373.3c0 20-16.2 36.3-36.3 36.3z"/><path class="i" d="m364.2 518.9h-126.9c-19.7 0-35.6-15.9-35.6-35.5v-373c0-19.6 15.9-35.5 35.6-35.5h126.9c19.7 0 35.6 15.9 35.6 35.5v373c0 19.6-15.9 35.5-35.6 35.5z"/><path class="i" d="m363.7 518h-125.9c-19.2 0-34.7-15.6-34.7-34.7v-372.7c0-19.2 15.5-34.8 34.7-34.8h125.9c19.2 0 34.7 15.6 34.7 34.8v372.7c0 19.1-15.5 34.7-34.7 34.7z"/><path class="i" d="m363.1 517h-124.7c-18.7 0-33.9-15.2-33.9-33.9v-372.4c0-18.7 15.2-33.9 33.9-33.9h124.7c18.7 0 33.9 15.2 33.9 33.9v372.4c0 18.7-15.2 33.9-33.9 33.9z"/><path class="i" d="m362.5 516.1h-123.5c-18.3 0-33.2-14.8-33.2-33.2v-372c0-18.3 14.9-33.2 33.2-33.2h123.5c18.3 0 33.2 14.9 33.2 33.2v372c0 18.4-14.9 33.2-33.2 33.2z"/><path class="i" d="m362 515.1h-122.5c-17.8 0-32.3-14.4-32.3-32.3v-371.8c0-17.8 14.5-32.3 32.3-32.3h122.5c17.8 0 32.3 14.5 32.3 32.3v371.8c0 17.9-14.5 32.3-32.3 32.3z"/><path class="i" d="m361.4 514.2h-121.3c-17.4 0-31.6-14.1-31.6-31.6v-371.4c0-17.4 14.2-31.6 31.6-31.6h121.3c17.4 0 31.6 14.2 31.6 31.6v371.4c0 17.5-14.2 31.6-31.6 31.6z"/><path class="j" d="m360.8 513.2h-120.1c-17 0-30.8-13.7-30.8-30.7v-371.2c0-16.9 13.8-30.7 30.8-30.7h120.1c17 0 30.8 13.8 30.8 30.7v371.2c0 17-13.8 30.7-30.8 30.7z"/><path class="j" d="m360.3 512.3h-119.1c-16.5 0-29.9-13.4-29.9-30v-370.8c0-16.6 13.4-30 29.9-30h119.1c16.5 0 29.9 13.4 29.9 30v370.8c0 16.6-13.4 30-29.9 30z"/><path class="j" d="m359.7 511.3h-117.9c-16.1 0-29.2-13-29.2-29.1v-370.6c0-16.1 13.1-29.1 29.2-29.1h117.9c16.1 0 29.2 13 29.2 29.1v370.6c0 16.1-13.1 29.1-29.2 29.1z"/><path class="j" d="m359.1 510.4h-116.7c-15.7 0-28.4-12.7-28.4-28.4v-370.2c0-15.7 12.7-28.4 28.4-28.4h116.7c15.7 0 28.4 12.7 28.4 28.4v370.2c0 15.7-12.7 28.4-28.4 28.4z"/><path class="j" d="m358.6 509.4h-115.7c-15.2 0-27.5-12.3-27.5-27.5v-369.9c0-15.3 12.3-27.6 27.5-27.6h115.7c15.2 0 27.5 12.3 27.5 27.6v369.9c0 15.2-12.3 27.5-27.5 27.5z"/><path class="k" d="m358 508.5h-114.5c-14.8 0-26.8-12-26.8-26.8v-369.6c0-14.8 12-26.8 26.8-26.8h114.5c14.8 0 26.8 12 26.8 26.8v369.6c0 14.8-12 26.8-26.8 26.8z"/><path class="k" d="m357.4 507.5h-113.3c-14.4 0-26-11.6-26-25.9v-369.3c0-14.4 11.6-26 26-26h113.3c14.4 0 26 11.6 26 26v369.3c0 14.3-11.6 25.9-26 25.9z"/><path class="k" d="m356.9 506.6h-112.3c-13.9 0-25.2-11.3-25.2-25.2v-369c0-13.9 11.3-25.2 25.2-25.2h112.3c13.9 0 25.2 11.3 25.2 25.2v369c0 13.9-11.3 25.2-25.2 25.2z"/><path class="k" d="m356.3 505.6h-111.1c-13.5 0-24.4-10.9-24.4-24.4v-368.6c0-13.5 10.9-24.4 24.4-24.4h111.1c13.5 0 24.4 10.9 24.4 24.4v368.6c0 13.5-10.9 24.4-24.4 24.4z"/><path class="k" d="m355.7 504.7h-109.9c-13.1 0-23.6-10.6-23.6-23.6v-368.4c0-13 10.5-23.6 23.6-23.6h109.9c13.1 0 23.6 10.6 23.6 23.6v368.4c0 13-10.5 23.6-23.6 23.6z"/><path class="l" d="m355.2 503.7h-108.9c-12.6 0-22.8-10.2-22.8-22.8v-368c0-12.6 10.2-22.8 22.8-22.8h108.9c12.6 0 22.8 10.2 22.8 22.8v368c0 12.6-10.2 22.8-22.8 22.8z"/><path class="l" d="m354.6 502.8h-107.7c-12.2 0-22-9.9-22-22v-367.8c0-12.1 9.8-22 22-22h107.7c12.2 0 22 9.9 22 22v367.8c0 12.1-9.8 22-22 22z"/><path class="l" d="m354 501.8h-106.5c-11.8 0-21.2-9.5-21.2-21.2v-367.4c0-11.7 9.4-21.2 21.2-21.2h106.5c11.8 0 21.2 9.5 21.2 21.2v367.4c0 11.7-9.4 21.2-21.2 21.2z"/><path class="l" d="m353.5 500.9h-105.5c-11.2 0-20.4-9.2-20.4-20.4v-367.1c0-11.3 9.2-20.4 20.4-20.4h105.5c11.2 0 20.4 9.1 20.4 20.4v367.1c0 11.2-9.2 20.4-20.4 20.4z"/><path class="l" d="m352.9 499.9h-104.3c-10.8 0-19.6-8.8-19.6-19.6v-366.8c0-10.8 8.8-19.6 19.6-19.6h104.3c10.8 0 19.6 8.8 19.6 19.6v366.8c0 10.8-8.8 19.6-19.6 19.6z"/><path class="m" d="m352.3 499h-103.1c-10.4 0-18.9-8.5-18.9-18.8v-366.5c0-10.4 8.5-18.8 18.9-18.8h103.1c10.4 0 18.9 8.4 18.9 18.8v366.5c0 10.3-8.5 18.8-18.9 18.8z"/><path class="m" d="m351.8 498h-102.1c-9.9 0-18-8-18-18v-366.2c0-9.9 8.1-18 18-18h102.1c9.9 0 18 8.1 18 18v366.2c0 10-8.1 18-18 18z"/><path class="m" d="m351.2 497.1h-100.9c-9.5 0-17.2-7.7-17.2-17.3v-365.8c0-9.5 7.7-17.2 17.2-17.2h100.9c9.5 0 17.2 7.7 17.2 17.2v365.8c0 9.6-7.7 17.3-17.2 17.3z"/><path class="m" d="m350.7 496.1h-99.9c-9 0-16.4-7.3-16.4-16.4v-365.6c0-9 7.4-16.4 16.4-16.4h99.9c9 0 16.4 7.4 16.4 16.4v365.6c0 9.1-7.4 16.4-16.4 16.4z"/><path class="m" d="m350.1 495.2h-98.7c-8.6 0-15.6-7-15.6-15.7v-365.2c0-8.6 7-15.6 15.6-15.6h98.7c8.6 0 15.6 7 15.6 15.6v365.2c0 8.7-7 15.7-15.6 15.7z"/><path class="n" d="m349.5 494.2h-97.5c-8.2 0-14.8-6.6-14.8-14.8v-365c0-8.2 6.6-14.8 14.8-14.8h97.5c8.2 0 14.8 6.6 14.8 14.8v365c0 8.2-6.6 14.8-14.8 14.8z"/><path class="n" d="m349 493.3h-96.5c-7.7 0-14-6.3-14-14.1v-364.6c0-7.8 6.3-14 14-14h96.5c7.7 0 14 6.2 14 14v364.6c0 7.8-6.3 14.1-14 14.1z"/><path class="o" d="m348.4 492.3h-95.3c-7.3 0-13.2-5.9-13.2-13.2v-364.4c0-7.3 5.9-13.2 13.2-13.2h95.3c7.3 0 13.2 5.9 13.2 13.2v364.4c0 7.3-5.9 13.2-13.2 13.2z"/></g><g style="opacity:.5;mix-blend-mode:multiply"><path class="p" d="m307.8 487.6h-153c-29.8 0-53.9-24.1-53.9-53.9v-380.1c0-29.7 24.1-53.9 53.9-53.9h153c29.7 0 53.8 24.2 53.8 53.9v380.1c0 29.8-24.1 53.9-53.8 53.9z"/><path class="p" d="m307.2 486.6h-151.9c-29.3 0-53-23.7-53-53v-379.8c0-29.3 23.7-53.1 53-53.1h151.9c29.3 0 53.1 23.8 53.1 53.1v379.8c0 29.3-23.8 53-53.1 53z"/><path class="p" d="m306.6 485.7h-150.7c-28.9 0-52.3-23.4-52.3-52.3v-379.5c0-28.9 23.4-52.2 52.3-52.2h150.7c28.9 0 52.3 23.3 52.3 52.2v379.5c0 28.9-23.4 52.3-52.3 52.3z"/><path class="q" d="m306.1 484.7h-149.6c-28.5 0-51.5-23-51.5-51.4v-379.2c0-28.5 23-51.5 51.5-51.5h149.6c28.4 0 51.4 23 51.4 51.5v379.2c0 28.4-23 51.4-51.4 51.4z"/><path class="q" d="m305.5 483.8h-148.5c-28 0-50.6-22.7-50.6-50.7v-378.9c0-28 22.6-50.6 50.6-50.6h148.5c28 0 50.7 22.6 50.7 50.6v378.9c0 28-22.7 50.7-50.7 50.7z"/><path class="q" d="m304.9 482.8h-147.3c-27.6 0-49.9-22.3-49.9-49.8v-378.6c0-27.6 22.3-49.9 49.9-49.9h147.3c27.6 0 49.9 22.3 49.9 49.9v378.6c0 27.5-22.3 49.8-49.9 49.8z"/><path class="q" d="m304.4 481.9h-146.2c-27.2 0-49.1-22-49.1-49.1v-378.3c0-27.1 21.9-49 49.1-49h146.2c27.1 0 49 21.9 49 49v378.3c0 27.1-21.9 49.1-49 49.1z"/><path class="q" d="m303.8 480.9h-145.1c-26.6 0-48.3-21.6-48.3-48.3v-377.9c0-26.7 21.7-48.3 48.3-48.3h145.1c26.7 0 48.3 21.6 48.3 48.3v377.9c0 26.7-21.6 48.3-48.3 48.3z"/><path class="r" d="m303.2 480h-143.9c-26.2 0-47.5-21.3-47.5-47.5v-377.7c0-26.2 21.3-47.4 47.5-47.4h143.9c26.3 0 47.5 21.2 47.5 47.4v377.7c0 26.2-21.2 47.5-47.5 47.5z"/><path class="r" d="m302.7 479h-142.9c-25.7 0-46.6-20.9-46.6-46.7v-377.3c0-25.8 20.9-46.7 46.6-46.7h142.9c25.8 0 46.7 20.9 46.7 46.7v377.3c0 25.8-20.9 46.7-46.7 46.7z"/><path class="r" d="m302.1 478.1h-141.7c-25.3 0-45.9-20.6-45.9-45.9v-377c0-25.4 20.6-45.9 45.9-45.9h141.7c25.3 0 45.9 20.5 45.9 45.9v377c0 25.3-20.6 45.9-45.9 45.9z"/><path class="r" d="m301.5 477.1h-140.5c-24.9 0-45.1-20.2-45.1-45.1v-376.7c0-24.9 20.2-45.1 45.1-45.1h140.5c24.9 0 45.1 20.2 45.1 45.1v376.7c0 24.9-20.2 45.1-45.1 45.1z"/><path class="r" d="m301 476.2h-139.5c-24.4 0-44.2-19.9-44.2-44.3v-376.4c0-24.5 19.8-44.3 44.2-44.3h139.5c24.4 0 44.3 19.8 44.3 44.3v376.4c0 24.4-19.9 44.3-44.3 44.3z"/><path class="s" d="m300.4 475.2h-138.3c-24 0-43.5-19.5-43.5-43.5v-376.1c0-24 19.5-43.5 43.5-43.5h138.3c24 0 43.5 19.5 43.5 43.5v376.1c0 24-19.5 43.5-43.5 43.5z"/><path class="s" d="m299.8 474.3h-137.1c-23.6 0-42.7-19.2-42.7-42.7v-375.8c0-23.6 19.1-42.7 42.7-42.7h137.1c23.6 0 42.7 19.1 42.7 42.7v375.8c0 23.5-19.1 42.7-42.7 42.7z"/><path class="s" d="m299.3 473.3h-136.1c-23.1 0-41.9-18.8-41.9-41.9v-375.5c0-23.1 18.8-41.9 41.9-41.9h136.1c23.1 0 41.9 18.8 41.9 41.9v375.5c0 23.1-18.8 41.9-41.9 41.9z"/><path class="s" d="m298.7 472.4h-134.9c-22.7 0-41.1-18.4-41.1-41.2v-375.1c0-22.7 18.4-41.1 41.1-41.1h134.9c22.7 0 41.1 18.4 41.1 41.1v375.1c0 22.8-18.4 41.2-41.1 41.2z"/><path class="s" d="m298.1 471.4h-133.7c-22.3 0-40.3-18-40.3-40.3v-374.9c0-22.2 18-40.3 40.3-40.3h133.7c22.3 0 40.4 18.1 40.4 40.3v374.9c0 22.3-18.1 40.3-40.4 40.3z"/><path class="t" d="m297.6 470.5h-132.7c-21.8 0-39.5-17.7-39.5-39.6v-374.5c0-21.8 17.7-39.5 39.5-39.5h132.7c21.8 0 39.5 17.7 39.5 39.5v374.5c0 21.9-17.7 39.6-39.5 39.6z"/><path class="t" d="m297 469.5h-131.5c-21.4 0-38.7-17.3-38.7-38.7v-374.3c0-21.3 17.3-38.7 38.7-38.7h131.5c21.4 0 38.7 17.4 38.7 38.7v374.3c0 21.4-17.3 38.7-38.7 38.7z"/><path class="t" d="m296.4 468.6h-130.3c-21 0-37.9-17-37.9-38v-373.9c0-20.9 16.9-37.9 37.9-37.9h130.3c21 0 38 17 38 37.9v373.9c0 21-17 38-38 38z"/><path class="t" d="m295.9 467.6h-129.3c-20.5 0-37.1-16.6-37.1-37.1v-373.6c0-20.6 16.6-37.2 37.1-37.2h129.3c20.5 0 37.1 16.6 37.1 37.2v373.6c0 20.5-16.6 37.1-37.1 37.1z"/><path class="t" d="m295.3 466.7h-128.1c-20.1 0-36.3-16.3-36.3-36.4v-373.3c0-20.1 16.2-36.3 36.3-36.3h128.1c20.1 0 36.3 16.2 36.3 36.3v373.3c0 20.1-16.2 36.4-36.3 36.4z"/><path class="u" d="m294.7 465.7h-126.9c-19.7 0-35.6-15.9-35.6-35.5v-373c0-19.7 15.9-35.6 35.6-35.6h126.9c19.7 0 35.6 15.9 35.6 35.6v373c0 19.6-15.9 35.5-35.6 35.5z"/><path class="u" d="m294.2 464.7h-125.9c-19.1 0-34.7-15.5-34.7-34.7v-372.7c0-19.2 15.6-34.7 34.7-34.7h125.9c19.2 0 34.7 15.5 34.7 34.7v372.7c0 19.2-15.5 34.7-34.7 34.7z"/><path class="u" d="m293.6 463.8h-124.7c-18.7 0-33.9-15.2-33.9-33.9v-372.4c0-18.8 15.2-34 33.9-34h124.7c18.8 0 34 15.2 34 34v372.4c0 18.7-15.2 33.9-34 33.9z"/><path class="u" d="m293 462.8h-123.5c-18.3 0-33.2-14.8-33.2-33.1v-372.1c0-18.3 14.9-33.1 33.2-33.1h123.5c18.4 0 33.2 14.8 33.2 33.1v372.1c0 18.3-14.8 33.1-33.2 33.1z"/><path class="u" d="m292.5 461.9h-122.5c-17.8 0-32.3-14.5-32.3-32.4v-371.7c0-17.9 14.5-32.4 32.3-32.4h122.5c17.8 0 32.3 14.5 32.3 32.4v371.7c0 17.9-14.5 32.4-32.3 32.4z"/><path class="u" d="m291.9 460.9h-121.3c-17.4 0-31.5-14.1-31.5-31.5v-371.5c0-17.4 14.1-31.5 31.5-31.5h121.3c17.4 0 31.6 14.1 31.6 31.5v371.5c0 17.4-14.2 31.5-31.6 31.5z"/><path class="v" d="m291.3 460h-120.1c-17 0-30.8-13.8-30.8-30.8v-371.1c0-17 13.8-30.8 30.8-30.8h120.1c17 0 30.8 13.8 30.8 30.8v371.1c0 17-13.8 30.8-30.8 30.8z"/><path class="v" d="m290.8 459h-119.1c-16.5 0-29.9-13.4-29.9-29.9v-370.9c0-16.5 13.4-29.9 29.9-29.9h119.1c16.5 0 29.9 13.4 29.9 29.9v370.9c0 16.5-13.4 29.9-29.9 29.9z"/><path class="v" d="m290.2 458.1h-117.9c-16.1 0-29.2-13.1-29.2-29.2v-370.5c0-16.1 13.1-29.2 29.2-29.2h117.9c16.1 0 29.2 13.1 29.2 29.2v370.5c0 16.1-13.1 29.2-29.2 29.2z"/><path class="v" d="m289.7 457.1h-116.8c-15.7 0-28.4-12.7-28.4-28.3v-370.2c0-15.7 12.7-28.4 28.4-28.4h116.8c15.6 0 28.3 12.7 28.3 28.4v370.2c0 15.6-12.7 28.3-28.3 28.3z"/><path class="v" d="m289.1 456.2h-115.7c-15.2 0-27.5-12.4-27.5-27.6v-369.9c0-15.2 12.3-27.6 27.5-27.6h115.7c15.2 0 27.6 12.4 27.6 27.6v369.9c0 15.2-12.4 27.6-27.6 27.6z"/><path class="w" d="m288.5 455.2h-114.5c-14.8 0-26.8-12-26.8-26.7v-369.6c0-14.8 12-26.8 26.8-26.8h114.5c14.8 0 26.8 12 26.8 26.8v369.6c0 14.7-12 26.7-26.8 26.7z"/><path class="w" d="m288 454.3h-113.4c-14.4 0-26-11.6-26-26v-369.3c0-14.3 11.6-26 26-26h113.4c14.3 0 25.9 11.7 25.9 26v369.3c0 14.4-11.6 26-25.9 26z"/><path class="w" d="m287.4 453.3h-112.3c-13.9 0-25.1-11.2-25.1-25.1v-369c0-13.9 11.2-25.2 25.1-25.2h112.3c13.9 0 25.2 11.3 25.2 25.2v369c0 13.9-11.3 25.1-25.2 25.1z"/><path class="w" d="m286.8 452.4h-111.1c-13.5 0-24.4-10.9-24.4-24.4v-368.7c0-13.4 10.9-24.4 24.4-24.4h111.1c13.5 0 24.4 11 24.4 24.4v368.7c0 13.5-10.9 24.4-24.4 24.4z"/><path class="w" d="m286.3 451.4h-110c-13.1 0-23.6-10.5-23.6-23.6v-368.3c0-13 10.5-23.6 23.6-23.6h110c13 0 23.5 10.6 23.5 23.6v368.3c0 13.1-10.5 23.6-23.5 23.6z"/><path class="x" d="m285.7 450.5h-108.9c-12.6 0-22.8-10.2-22.8-22.8v-368.1c0-12.5 10.2-22.7 22.8-22.7h108.9c12.6 0 22.8 10.2 22.8 22.7v368.1c0 12.6-10.2 22.8-22.8 22.8z"/><path class="x" d="m285.1 449.5h-107.7c-12.1 0-22-9.8-22-22v-367.7c0-12.1 9.9-22 22-22h107.7c12.2 0 22 9.9 22 22v367.7c0 12.2-9.8 22-22 22z"/><path class="x" d="m284.6 448.6h-106.6c-11.7 0-21.2-9.5-21.2-21.2v-367.4c0-11.8 9.5-21.2 21.2-21.2h106.6c11.7 0 21.2 9.4 21.2 21.2v367.4c0 11.7-9.5 21.2-21.2 21.2z"/><path class="x" d="m284 447.6h-105.5c-11.2 0-20.4-9.1-20.4-20.4v-367.1c0-11.3 9.2-20.4 20.4-20.4h105.5c11.3 0 20.4 9.1 20.4 20.4v367.1c0 11.3-9.1 20.4-20.4 20.4z"/><path class="x" d="m283.4 446.7h-104.3c-10.8 0-19.6-8.8-19.6-19.6v-366.8c0-10.9 8.8-19.6 19.6-19.6h104.3c10.9 0 19.6 8.7 19.6 19.6v366.8c0 10.8-8.7 19.6-19.6 19.6z"/><path class="y" d="m282.9 445.7h-103.2c-10.4 0-18.8-8.4-18.8-18.8v-366.5c0-10.4 8.4-18.8 18.8-18.8h103.2c10.3 0 18.8 8.4 18.8 18.8v366.5c0 10.4-8.5 18.8-18.8 18.8z"/><path class="y" d="m282.3 444.8h-102.1c-9.9 0-18-8.1-18-18v-366.2c0-10 8.1-18 18-18h102.1c9.9 0 18 8 18 18v366.2c0 9.9-8.1 18-18 18z"/><path class="y" d="m281.7 443.8h-100.9c-9.5 0-17.2-7.7-17.2-17.2v-365.9c0-9.5 7.7-17.2 17.2-17.2h100.9c9.5 0 17.2 7.7 17.2 17.2v365.9c0 9.5-7.7 17.2-17.2 17.2z"/><path class="y" d="m281.2 442.9h-99.8c-9.1 0-16.5-7.4-16.5-16.5v-365.5c0-9.1 7.4-16.4 16.5-16.4h99.8c9 0 16.4 7.3 16.4 16.4v365.5c0 9.1-7.4 16.5-16.4 16.5z"/><path class="y" d="m280.6 441.9h-98.7c-8.6 0-15.6-7-15.6-15.6v-365.3c0-8.6 7-15.6 15.6-15.6h98.7c8.6 0 15.6 7 15.6 15.6v365.3c0 8.6-7 15.6-15.6 15.6z"/><path class="z" d="m280 441h-97.5c-8.2 0-14.8-6.7-14.8-14.9v-364.9c0-8.2 6.6-14.8 14.8-14.8h97.5c8.2 0 14.9 6.6 14.9 14.8v364.9c0 8.2-6.7 14.9-14.9 14.9z"/><path class="z" d="m279.5 440h-96.4c-7.8 0-14.1-6.3-14.1-14v-364.7c0-7.7 6.3-14 14.1-14h96.4c7.7 0 14 6.3 14 14v364.7c0 7.7-6.3 14-14 14z"/><path class="A" d="m278.9 439.1h-95.3c-7.3 0-13.2-6-13.2-13.3v-364.3c0-7.3 5.9-13.2 13.2-13.2h95.3c7.3 0 13.2 5.9 13.2 13.2v364.3c0 7.3-5.9 13.3-13.2 13.3z"/></g></g><path class="B" d="m359.4 501.2h-204c-15.7 0-28.4-12.6-28.4-28.3v-431.2c0-15.6 12.7-28.3 28.4-28.3h204c15.7 0 28.3 12.7 28.3 28.3v431.2c0 15.7-12.6 28.3-28.3 28.3z"/><g style="opacity:.3;mix-blend-mode:multiply"><path class="p" d="m486.6 279.3h-233.2c-23.7 0-43-19.3-43-43.1v-88.5c0-23.8 19.3-43.1 43-43.1h233.2c23.8 0 43 19.3 43 43.1v88.5c0 23.8-19.2 43.1-43 43.1z"/><path class="p" d="m486.1 278.5h-232.2c-23.4 0-42.4-19-42.4-42.4v-88.3c0-23.4 19-42.4 42.4-42.4h232.2c23.5 0 42.5 19 42.5 42.4v88.3c0 23.4-19 42.4-42.5 42.4z"/><path class="p" d="m485.7 277.8h-231.3c-23.1 0-41.8-18.7-41.8-41.8v-88.1c0-23.1 18.7-41.8 41.8-41.8h231.3c23.1 0 41.8 18.7 41.8 41.8v88.1c0 23.1-18.7 41.8-41.8 41.8z"/><path class="q" d="m485.2 277h-230.4c-22.7 0-41.2-18.4-41.2-41.2v-87.8c0-22.7 18.5-41.1 41.2-41.1h230.4c22.8 0 41.2 18.4 41.2 41.1v87.8c0 22.8-18.4 41.2-41.2 41.2z"/><path class="q" d="m484.8 276.2h-229.5c-22.4 0-40.6-18.1-40.6-40.5v-87.5c0-22.4 18.2-40.6 40.6-40.6h229.5c22.3 0 40.5 18.2 40.5 40.6v87.5c0 22.4-18.2 40.5-40.5 40.5z"/><path class="q" d="m484.3 275.5h-228.6c-22 0-39.9-17.9-39.9-39.9v-87.3c0-22 17.9-39.9 39.9-39.9h228.6c22 0 39.9 17.9 39.9 39.9v87.3c0 22-17.9 39.9-39.9 39.9z"/><path class="q" d="m483.9 274.7h-227.7c-21.7 0-39.3-17.6-39.3-39.2v-87.1c0-21.7 17.6-39.2 39.3-39.2h227.7c21.6 0 39.2 17.5 39.2 39.2v87.1c0 21.6-17.6 39.2-39.2 39.2z"/><path class="q" d="m483.4 274h-226.8c-21.3 0-38.6-17.3-38.6-38.6v-86.9c0-21.3 17.3-38.6 38.6-38.6h226.8c21.3 0 38.6 17.3 38.6 38.6v86.9c0 21.3-17.3 38.6-38.6 38.6z"/><path class="r" d="m483 273.2h-225.9c-21 0-38-17-38-38v-86.5c0-21 17-38 38-38h225.9c20.9 0 37.9 17 37.9 38v86.5c0 21-17 38-37.9 38z"/><path class="r" d="m482.5 272.4h-225c-20.6 0-37.3-16.7-37.3-37.3v-86.3c0-20.6 16.7-37.4 37.3-37.4h225c20.6 0 37.3 16.8 37.3 37.4v86.3c0 20.6-16.7 37.3-37.3 37.3z"/><path class="r" d="m482.1 271.7h-224.1c-20.3 0-36.7-16.5-36.7-36.7v-86.1c0-20.3 16.4-36.7 36.7-36.7h224.1c20.2 0 36.6 16.4 36.6 36.7v86.1c0 20.2-16.4 36.7-36.6 36.7z"/><path class="r" d="m481.6 270.9h-223.2c-19.9 0-36-16.1-36-36v-85.9c0-19.9 16.1-36 36-36h223.2c19.9 0 36.1 16.1 36.1 36v85.9c0 19.9-16.2 36-36.1 36z"/><path class="r" d="m481.1 270.2h-222.2c-19.6 0-35.4-15.9-35.4-35.5v-85.5c0-19.6 15.8-35.5 35.4-35.5h222.2c19.6 0 35.5 15.9 35.5 35.5v85.5c0 19.6-15.9 35.5-35.5 35.5z"/><path class="s" d="m480.7 269.4h-221.4c-19.2 0-34.8-15.6-34.8-34.8v-85.3c0-19.2 15.6-34.8 34.8-34.8h221.4c19.2 0 34.8 15.6 34.8 34.8v85.3c0 19.2-15.6 34.8-34.8 34.8z"/><path class="s" d="m480.2 268.6h-220.4c-18.9 0-34.2-15.3-34.2-34.1v-85.1c0-18.9 15.3-34.1 34.2-34.1h220.4c18.9 0 34.2 15.2 34.2 34.1v85.1c0 18.8-15.3 34.1-34.2 34.1z"/><path class="s" d="m479.8 267.9h-219.6c-18.5 0-33.5-15-33.5-33.5v-84.9c0-18.5 15-33.5 33.5-33.5h219.6c18.5 0 33.5 15 33.5 33.5v84.9c0 18.5-15 33.5-33.5 33.5z"/><path class="s" d="m479.3 267.1h-218.6c-18.2 0-32.9-14.7-32.9-32.9v-84.6c0-18.1 14.7-32.8 32.9-32.8h218.6c18.2 0 32.9 14.7 32.9 32.8v84.6c0 18.2-14.7 32.9-32.9 32.9z"/><path class="s" d="m478.9 266.4h-217.8c-17.8 0-32.2-14.5-32.2-32.3v-84.3c0-17.8 14.4-32.3 32.2-32.3h217.8c17.8 0 32.2 14.5 32.2 32.3v84.3c0 17.8-14.4 32.3-32.2 32.3z"/><path class="t" d="m478.4 265.6h-216.8c-17.5 0-31.6-14.2-31.6-31.6v-84.1c0-17.5 14.1-31.6 31.6-31.6h216.8c17.5 0 31.6 14.1 31.6 31.6v84.1c0 17.4-14.1 31.6-31.6 31.6z"/><path class="t" d="m478 264.8h-216c-17.1 0-30.9-13.8-30.9-30.9v-83.9c0-17.1 13.8-30.9 30.9-30.9h216c17.1 0 30.9 13.8 30.9 30.9v83.9c0 17.1-13.8 30.9-30.9 30.9z"/><path class="t" d="m477.5 264.1h-215c-16.7 0-30.3-13.6-30.3-30.4v-83.6c0-16.7 13.6-30.3 30.3-30.3h215c16.8 0 30.4 13.6 30.4 30.3v83.6c0 16.8-13.6 30.4-30.4 30.4z"/><path class="t" d="m477.1 263.3h-214.1c-16.4 0-29.7-13.3-29.7-29.7v-83.3c0-16.4 13.3-29.7 29.7-29.7h214.1c16.4 0 29.7 13.3 29.7 29.7v83.3c0 16.4-13.3 29.7-29.7 29.7z"/><path class="t" d="m476.6 262.5h-213.2c-16 0-29-13-29-29v-83.1c0-16.1 13-29.1 29-29.1h213.2c16.1 0 29.1 13 29.1 29.1v83.1c0 16-13 29-29.1 29z"/><path class="u" d="m476.2 261.8h-212.3c-15.7 0-28.5-12.7-28.5-28.4v-82.9c0-15.7 12.8-28.4 28.5-28.4h212.3c15.7 0 28.4 12.7 28.4 28.4v82.9c0 15.7-12.7 28.4-28.4 28.4z"/><path class="u" d="m475.7 261h-211.4c-15.3 0-27.8-12.4-27.8-27.8v-82.6c0-15.3 12.5-27.7 27.8-27.7h211.4c15.4 0 27.8 12.4 27.8 27.7v82.6c0 15.4-12.4 27.8-27.8 27.8z"/><path class="u" d="m475.3 260.3h-210.5c-15 0-27.2-12.2-27.2-27.2v-82.3c0-15 12.2-27.2 27.2-27.2h210.5c15 0 27.1 12.2 27.1 27.2v82.3c0 15-12.1 27.2-27.1 27.2z"/><path class="u" d="m474.8 259.5h-209.6c-14.6 0-26.5-11.9-26.5-26.5v-82.1c0-14.7 11.9-26.5 26.5-26.5h209.6c14.6 0 26.5 11.8 26.5 26.5v82.1c0 14.6-11.9 26.5-26.5 26.5z"/><path class="u" d="m474.4 258.7h-208.7c-14.3 0-25.9-11.5-25.9-25.8v-81.9c0-14.3 11.6-25.9 25.9-25.9h208.7c14.2 0 25.8 11.6 25.8 25.9v81.9c0 14.3-11.6 25.8-25.8 25.8z"/><path class="u" d="m473.9 258h-207.8c-13.9 0-25.2-11.3-25.2-25.2v-81.7c0-13.9 11.3-25.2 25.2-25.2h207.8c13.9 0 25.2 11.3 25.2 25.2v81.7c0 13.9-11.3 25.2-25.2 25.2z"/><path class="v" d="m473.5 257.2h-206.9c-13.6 0-24.6-11-24.6-24.6v-81.3c0-13.6 11-24.6 24.6-24.6h206.9c13.5 0 24.5 11 24.5 24.6v81.3c0 13.6-11 24.6-24.5 24.6z"/><path class="v" d="m473 256.5h-206c-13.2 0-23.9-10.8-23.9-24v-81.1c0-13.2 10.7-24 23.9-24h206c13.2 0 24 10.8 24 24v81.1c0 13.2-10.8 24-24 24z"/><path class="v" d="m472.5 255.7h-205c-12.9 0-23.3-10.4-23.3-23.3v-80.9c0-12.9 10.4-23.3 23.3-23.3h205c12.9 0 23.4 10.4 23.4 23.3v80.9c0 12.9-10.5 23.3-23.4 23.3z"/><path class="v" d="m472.1 254.9h-204.2c-12.5 0-22.7-10.1-22.7-22.6v-80.7c0-12.5 10.2-22.7 22.7-22.7h204.2c12.5 0 22.7 10.2 22.7 22.7v80.7c0 12.5-10.2 22.6-22.7 22.6z"/><path class="v" d="m471.6 254.2h-203.2c-12.2 0-22.1-9.9-22.1-22.1v-80.3c0-12.2 9.9-22.1 22.1-22.1h203.2c12.2 0 22.1 9.9 22.1 22.1v80.3c0 12.2-9.9 22.1-22.1 22.1z"/><path class="w" d="m471.2 253.4h-202.4c-11.8 0-21.4-9.6-21.4-21.4v-80.1c0-11.8 9.6-21.4 21.4-21.4h202.4c11.8 0 21.4 9.6 21.4 21.4v80.1c0 11.8-9.6 21.4-21.4 21.4z"/><path class="w" d="m470.7 252.7h-201.4c-11.5 0-20.8-9.3-20.8-20.8v-79.9c0-11.5 9.3-20.8 20.8-20.8h201.4c11.5 0 20.8 9.3 20.8 20.8v79.9c0 11.5-9.3 20.8-20.8 20.8z"/><path class="w" d="m470.3 251.9h-200.6c-11.1 0-20.1-9-20.1-20.1v-79.7c0-11.1 9-20.1 20.1-20.1h200.6c11.1 0 20.1 9 20.1 20.1v79.7c0 11.1-9 20.1-20.1 20.1z"/><path class="w" d="m469.8 251.1h-199.6c-10.8 0-19.5-8.7-19.5-19.5v-79.4c0-10.7 8.7-19.4 19.5-19.4h199.6c10.8 0 19.5 8.7 19.5 19.4v79.4c0 10.8-8.7 19.5-19.5 19.5z"/><path class="w" d="m469.4 250.4h-198.8c-10.4 0-18.8-8.5-18.8-18.9v-79.1c0-10.4 8.4-18.9 18.8-18.9h198.8c10.4 0 18.8 8.5 18.8 18.9v79.1c0 10.4-8.4 18.9-18.8 18.9z"/><path class="x" d="m468.9 249.6h-197.8c-10.1 0-18.2-8.1-18.2-18.2v-78.9c0-10.1 8.1-18.2 18.2-18.2h197.8c10.1 0 18.3 8.1 18.3 18.2v78.9c0 10.1-8.2 18.2-18.3 18.2z"/><path class="x" d="m468.5 248.9h-196.9c-9.8 0-17.6-7.9-17.6-17.6v-78.7c0-9.7 7.8-17.6 17.6-17.6h196.9c9.7 0 17.6 7.9 17.6 17.6v78.7c0 9.7-7.9 17.6-17.6 17.6z"/><path class="x" d="m468 248.1h-196c-9.4 0-16.9-7.6-16.9-17v-78.4c0-9.3 7.5-16.9 16.9-16.9h196c9.4 0 17 7.6 17 16.9v78.4c0 9.4-7.6 17-17 17z"/><path class="x" d="m467.6 247.3h-195.1c-9.1 0-16.4-7.3-16.4-16.3v-78.1c0-9 7.3-16.3 16.4-16.3h195.1c9 0 16.3 7.3 16.3 16.3v78.1c0 9-7.3 16.3-16.3 16.3z"/><path class="x" d="m467.1 246.6h-194.2c-8.6 0-15.7-7-15.7-15.7v-77.9c0-8.7 7.1-15.7 15.7-15.7h194.2c8.7 0 15.7 7 15.7 15.7v77.9c0 8.7-7 15.7-15.7 15.7z"/><path class="y" d="m466.7 245.8h-193.3c-8.3 0-15.1-6.7-15.1-15v-77.7c0-8.3 6.8-15 15.1-15h193.3c8.3 0 15 6.7 15 15v77.7c0 8.3-6.7 15-15 15z"/><path class="y" d="m466.2 245h-192.4c-7.9 0-14.4-6.4-14.4-14.4v-77.4c0-7.9 6.5-14.4 14.4-14.4h192.4c8 0 14.4 6.5 14.4 14.4v77.4c0 8-6.4 14.4-14.4 14.4z"/><path class="y" d="m465.8 244.3h-191.5c-7.6 0-13.8-6.2-13.8-13.8v-77.1c0-7.6 6.2-13.8 13.8-13.8h191.5c7.6 0 13.7 6.2 13.7 13.8v77.1c0 7.6-6.1 13.8-13.7 13.8z"/><path class="y" d="m465.3 243.5h-190.6c-7.2 0-13.1-5.9-13.1-13.1v-76.9c0-7.3 5.9-13.1 13.1-13.1h190.6c7.3 0 13.1 5.8 13.1 13.1v76.9c0 7.2-5.8 13.1-13.1 13.1z"/><path class="y" d="m464.9 242.8h-189.7c-6.9 0-12.5-5.6-12.5-12.5v-76.7c0-6.9 5.6-12.5 12.5-12.5h189.7c6.9 0 12.4 5.6 12.4 12.5v76.7c0 6.9-5.5 12.5-12.4 12.5z"/><path class="z" d="m464.4 242h-188.8c-6.5 0-11.8-5.3-11.8-11.8v-76.5c0-6.5 5.3-11.8 11.8-11.8h188.8c6.5 0 11.9 5.3 11.9 11.8v76.5c0 6.5-5.4 11.8-11.9 11.8z"/><path class="z" d="m463.9 241.2h-187.8c-6.2 0-11.2-5-11.2-11.2v-76.1c0-6.2 5-11.3 11.2-11.3h187.8c6.2 0 11.3 5.1 11.3 11.3v76.1c0 6.2-5.1 11.2-11.3 11.2z"/><path class="A" d="m463.5 240.5h-187c-5.8 0-10.5-4.8-10.5-10.6v-75.9c0-5.9 4.7-10.6 10.5-10.6h187c5.8 0 10.6 4.7 10.6 10.6v75.9c0 5.8-4.8 10.6-10.6 10.6z"/></g><path class="C" d="m470.5 236h-223.7c-12.4 0-22.3-10-22.3-22.3v-116.4c0-12.3 9.9-22.3 22.3-22.3h223.7c12.3 0 22.2 10 22.2 22.3v116.4c0 12.3-9.9 22.3-22.2 22.3z"/><path fill-rule="evenodd" class="D" d="m463.4 155.9c0 29.5-23.9 53.4-53.4 53.4-29.5 0-53.4-23.9-53.4-53.4 0-29.5 23.9-53.4 53.4-53.4 29.5 0 53.4 23.9 53.4 53.4zm-26.5 0c0-14.9-12-26.9-26.9-26.9-14.9 0-27 12-27 26.9 0 14.9 12.1 27 27 27 14.9 0 26.9-12.1 26.9-27z"/><path class="E" d="m424.2 207.4c-4.5 1.2-9.3 1.9-14.2 1.9-29.5 0-53.4-23.9-53.4-53.4q0-2 0.2-4h26.6c-0.2 1.3-0.4 2.7-0.4 4 0 14.9 12.1 27 27 27 5.2 0 10.1-1.5 14.2-4.1z"/><path class="F" d="m406 213.3v-34.4h4c12.6 0 22.9-10.3 22.9-23v-4h34.5v4c0 31.7-25.8 57.4-57.4 57.4z"/><text style="transform:matrix(2,0,0,2,395.435,162.283)" ><tspan x="0" y="0" class="G">25%
</tspan></text><path class="H" d="m471.1 96.9c0 2.1-1.8 3.8-3.9 3.8-2.1 0-3.8-1.7-3.8-3.8 0-2.1 1.7-3.8 3.8-3.8 2.1 0 3.9 1.7 3.9 3.8z"/><path class="I" d="m245.4 90.5h-5c-0.4 0-0.7-0.4-0.7-0.8 0-0.4 0.3-0.8 0.7-0.8h5c0.5 0 0.8 0.4 0.8 0.8 0 0.4-0.3 0.8-0.8 0.8z"/><path class="I" d="m245.4 93.1h-5c-0.4 0-0.7-0.3-0.7-0.7 0-0.5 0.3-0.8 0.7-0.8h5c0.5 0 0.8 0.3 0.8 0.8 0 0.4-0.3 0.7-0.8 0.7z"/><path class="I" d="m245.4 95.8h-5c-0.4 0-0.7-0.4-0.7-0.8 0-0.4 0.3-0.7 0.7-0.7h5c0.5 0 0.8 0.3 0.8 0.7 0 0.4-0.3 0.8-0.8 0.8z"/><text style="transform:matrix(2,0,0,2,238.706,110.847)" ><tspan x="0" y="0" class="J">My Earnings
</tspan></text><text style="transform:matrix(2,0,0,2,238.706,162.283)" ><tspan x="0" y="0" class="K">Total income is higher 3% than
</tspan><tspan x="0" y="3.6" class="K">last month.
</tspan></text><text style="transform:matrix(2,0,0,2,238.706,134.494)" ><tspan x="0" y="0" class="L">$4017.50
</tspan></text><text style="transform:matrix(2,0,0,2,238.706,148.719)" ><tspan x="0" y="0" class="M">+25%
</tspan></text><path class="N" d="m330.1 173.8c-4.9 7.4-15.2 15.6-31.7 12.7-16.5-2.8-15.2 7.4-30 17-14.9 9.5-29.7-3.2-29.7-3.2"/><path class="c" d="m186.9 85.4q-12.5 2.4-25.1 0c-3.2-0.6-5.7-3.1-6.3-6.3q-2.4-12.5 0-25.1c0.6-3.1 3.1-5.6 6.3-6.2q12.6-2.4 25.1 0c3.2 0.6 5.7 3.1 6.3 6.2q2.4 12.6 0 25.1c-0.6 3.2-3.1 5.7-6.3 6.3z"/><path class="c" d="m186.9 153.3q-12.5 2.4-25.1 0c-3.2-0.6-5.7-3.1-6.3-6.3q-2.4-12.5 0-25.1c0.6-3.1 3.1-5.6 6.3-6.2q12.6-2.4 25.1 0c3.2 0.6 5.7 3.1 6.3 6.2q2.4 12.6 0 25.1c-0.6 3.2-3.1 5.7-6.3 6.3z"/><path class="c" d="m186.9 221.2q-12.5 2.4-25.1 0c-3.2-0.6-5.7-3.1-6.3-6.2q-2.4-12.6 0-25.2c0.6-3.1 3.1-5.6 6.3-6.2q12.6-2.4 25.1 0c3.2 0.6 5.7 3.1 6.3 6.2q2.4 12.6 0 25.2c-0.6 3.1-3.1 5.6-6.3 6.2z"/><path class="O" d="m129.9 105.4q-22.8 10-47.8 10.8c-6.3 0.2-12.1-3.4-14.6-9.2q-10-22.8-10.8-47.8c-0.2-6.3 3.4-12.1 9.2-14.6q22.8-10 47.8-10.8c6.3-0.2 12.1 3.4 14.6 9.2q10 22.8 10.8 47.8c0.2 6.3-3.4 12.1-9.2 14.6z"/><path class="P" d="m95.1 60.3l13.8 3.2c0.4 0.1 0.8 0.5 0.9 0.9l4.8 21c0.1 0.7-0.3 1.3-1 1.5l-5.6 1.3c-0.7 0.1-1.3-0.3-1.5-1l-2.4-10.4c-0.1-0.7-0.8-1.1-1.4-1l-8.8 2c-0.6 0.2-1 0.8-0.9 1.5l2.4 10.5c0.2 0.6-0.3 1.3-0.9 1.4l-5.7 1.3c-0.6 0.1-1.3-0.3-1.4-0.9l-4.8-21c-0.1-0.5 0.1-1 0.4-1.3l11.1-8.8c0.3-0.2 0.7-0.3 1-0.2z"/><path class="I" d="m361.2 44.8h-9.2c-0.8 0-1.4-0.7-1.4-1.4 0-0.8 0.6-1.4 1.4-1.4h9.2c0.8 0 1.4 0.6 1.4 1.4 0 0.7-0.6 1.4-1.4 1.4z"/><path class="I" d="m361.2 49.7h-9.2c-0.8 0-1.4-0.7-1.4-1.4 0-0.8 0.6-1.4 1.4-1.4h9.2c0.8 0 1.4 0.6 1.4 1.4 0 0.7-0.6 1.4-1.4 1.4z"/><path class="I" d="m361.2 54.5h-9.2c-0.8 0-1.4-0.6-1.4-1.3 0-0.8 0.6-1.4 1.4-1.4h9.2c0.8 0 1.4 0.6 1.4 1.4 0 0.7-0.6 1.3-1.4 1.3z"/><g style="opacity:.4;mix-blend-mode:multiply"><path class="Q" d="m60.9 292.4c0 16.8-13.6 30.5-30.5 30.5-16.8 0-30.5-13.7-30.5-30.5 0-16.8 13.7-30.5 30.5-30.5 16.9 0 30.5 13.7 30.5 30.5z"/><path class="Q" d="m60.5 292.4c0 16.6-13.5 30.1-30.1 30.1-16.6 0-30-13.5-30-30.1 0-16.6 13.4-30 30-30 16.6 0 30.1 13.4 30.1 30z"/><path class="Q" d="m60 292.4c0 16.4-13.2 29.6-29.6 29.6-16.3 0-29.6-13.2-29.6-29.6 0-16.3 13.3-29.6 29.6-29.6 16.4 0 29.6 13.3 29.6 29.6z"/><path class="R" d="m59.6 292.4c0 16.1-13.1 29.2-29.2 29.2-16.1 0-29.1-13.1-29.1-29.2 0-16.1 13-29.1 29.1-29.1 16.1 0 29.2 13 29.2 29.1z"/><path class="R" d="m59.1 292.4c0 15.9-12.8 28.7-28.7 28.7-15.8 0-28.7-12.8-28.7-28.7 0-15.8 12.9-28.7 28.7-28.7 15.9 0 28.7 12.9 28.7 28.7z"/><path class="R" d="m58.7 292.4c0 15.6-12.7 28.3-28.3 28.3-15.6 0-28.2-12.7-28.2-28.3 0-15.6 12.6-28.2 28.2-28.2 15.6 0 28.3 12.6 28.3 28.2z"/><path class="R" d="m58.2 292.4c0 15.4-12.4 27.8-27.8 27.8-15.3 0-27.8-12.4-27.8-27.8 0-15.3 12.5-27.8 27.8-27.8 15.4 0 27.8 12.5 27.8 27.8z"/><path class="R" d="m57.8 292.4c0 15.1-12.3 27.4-27.4 27.4-15.1 0-27.3-12.3-27.3-27.4 0-15.1 12.2-27.3 27.3-27.3 15.1 0 27.4 12.2 27.4 27.3z"/><path class="S" d="m57.3 292.4c0 14.9-12 26.9-26.9 26.9-14.8 0-26.9-12-26.9-26.9 0-14.9 12.1-26.9 26.9-26.9 14.9 0 26.9 12 26.9 26.9z"/><path class="S" d="m56.9 292.4c0 14.6-11.8 26.5-26.5 26.5-14.6 0-26.4-11.9-26.4-26.5 0-14.6 11.8-26.4 26.4-26.4 14.7 0 26.5 11.8 26.5 26.4z"/><path class="S" d="m56.4 292.4c0 14.4-11.6 26-26 26-14.3 0-26-11.6-26-26 0-14.4 11.7-26 26-26 14.4 0 26 11.6 26 26z"/><path class="S" d="m56 292.4c0 14.1-11.4 25.6-25.6 25.6-14.1 0-25.5-11.5-25.5-25.6 0-14.1 11.4-25.6 25.5-25.6 14.2 0 25.6 11.5 25.6 25.6z"/><path class="S" d="m55.6 292.4c0 13.9-11.3 25.1-25.2 25.1-13.8 0-25.1-11.2-25.1-25.1 0-13.9 11.3-25.1 25.1-25.1 13.9 0 25.2 11.2 25.2 25.1z"/><path class="T" d="m55.1 292.4c0 13.6-11 24.7-24.7 24.7-13.6 0-24.6-11.1-24.6-24.7 0-13.6 11-24.7 24.6-24.7 13.7 0 24.7 11.1 24.7 24.7z"/><path class="T" d="m54.7 292.4c0 13.4-10.9 24.2-24.3 24.2-13.3 0-24.2-10.8-24.2-24.2 0-13.4 10.9-24.2 24.2-24.2 13.4 0 24.3 10.8 24.3 24.2z"/><path class="T" d="m54.2 292.4c0 13.1-10.6 23.8-23.8 23.8-13.1 0-23.7-10.7-23.7-23.8 0-13.1 10.6-23.8 23.7-23.8 13.2 0 23.8 10.7 23.8 23.8z"/><path class="T" d="m53.8 292.4c0 12.9-10.5 23.3-23.4 23.3-12.8 0-23.3-10.4-23.3-23.3 0-12.9 10.5-23.3 23.3-23.3 12.9 0 23.4 10.4 23.4 23.3z"/><path class="T" d="m53.3 292.4c0 12.6-10.2 22.9-22.9 22.9-12.6 0-22.8-10.3-22.8-22.9 0-12.6 10.2-22.9 22.8-22.9 12.7 0 22.9 10.3 22.9 22.9z"/><path class="U" d="m52.9 292.4c0 12.4-10.1 22.4-22.5 22.4-12.3 0-22.4-10-22.4-22.4 0-12.4 10.1-22.4 22.4-22.4 12.4 0 22.5 10 22.5 22.4z"/><path class="U" d="m52.4 292.4c0 12.1-9.8 22-22 22-12.1 0-21.9-9.9-21.9-22 0-12.1 9.8-22 21.9-22 12.2 0 22 9.9 22 22z"/><path class="U" d="m52 292.4c0 11.9-9.7 21.5-21.6 21.5-11.8 0-21.5-9.6-21.5-21.5 0-11.9 9.7-21.5 21.5-21.5 11.9 0 21.6 9.6 21.6 21.5z"/><path class="U" d="m51.5 292.4c0 11.6-9.4 21.1-21.1 21.1-11.6 0-21-9.5-21-21.1 0-11.6 9.4-21.1 21-21.1 11.7 0 21.1 9.5 21.1 21.1z"/><path class="U" d="m51.1 292.4c0 11.4-9.3 20.6-20.7 20.6-11.4 0-20.6-9.2-20.6-20.6 0-11.4 9.2-20.6 20.6-20.6 11.4 0 20.7 9.2 20.7 20.6z"/><path class="V" d="m50.6 292.4c0 11.2-9 20.2-20.2 20.2-11.1 0-20.1-9-20.1-20.2 0-11.1 9-20.2 20.1-20.2 11.2 0 20.2 9.1 20.2 20.2z"/><path class="V" d="m50.2 292.4c0 10.9-8.9 19.7-19.8 19.7-10.9 0-19.7-8.8-19.7-19.7 0-10.9 8.8-19.7 19.7-19.7 10.9 0 19.8 8.8 19.8 19.7z"/><path class="V" d="m49.7 292.4c0 10.7-8.6 19.3-19.3 19.3-10.6 0-19.2-8.6-19.2-19.3 0-10.6 8.6-19.3 19.2-19.3 10.7 0 19.3 8.7 19.3 19.3z"/><path class="V" d="m49.3 292.4c0 10.4-8.5 18.8-18.9 18.8-10.4 0-18.8-8.4-18.8-18.8 0-10.4 8.4-18.8 18.8-18.8 10.4 0 18.9 8.4 18.9 18.8z"/><path class="V" d="m48.8 292.4c0 10.2-8.2 18.4-18.4 18.4-10.1 0-18.3-8.2-18.3-18.4 0-10.1 8.2-18.4 18.3-18.4 10.2 0 18.4 8.3 18.4 18.4z"/><path class="V" d="m48.4 292.4c0 9.9-8.1 17.9-18 17.9-9.9 0-17.9-8-17.9-17.9 0-9.9 8-17.9 17.9-17.9 9.9 0 18 8 18 17.9z"/><path class="W" d="m47.9 292.4c0 9.7-7.8 17.5-17.5 17.5-9.6 0-17.4-7.8-17.4-17.5 0-9.7 7.8-17.5 17.4-17.5 9.7 0 17.5 7.8 17.5 17.5z"/><path class="W" d="m47.5 292.4c0 9.4-7.7 17-17.1 17-9.4 0-17-7.6-17-17 0-9.4 7.6-17 17-17 9.4 0 17.1 7.6 17.1 17z"/><path class="W" d="m47 292.4c0 9.2-7.4 16.6-16.6 16.6-9.1 0-16.6-7.4-16.6-16.6 0-9.2 7.5-16.6 16.6-16.6 9.2 0 16.6 7.4 16.6 16.6z"/><path class="W" d="m46.6 292.4c0 8.9-7.2 16.2-16.2 16.2-8.9 0-16.1-7.3-16.1-16.2 0-8.9 7.2-16.1 16.1-16.1 9 0 16.2 7.2 16.2 16.1z"/><path class="W" d="m46.1 292.4c0 8.7-7 15.7-15.7 15.7-8.6 0-15.7-7-15.7-15.7 0-8.7 7.1-15.7 15.7-15.7 8.7 0 15.7 7 15.7 15.7z"/><path class="X" d="m45.7 292.4c0 8.4-6.8 15.3-15.3 15.3-8.4 0-15.2-6.9-15.2-15.3 0-8.4 6.8-15.2 15.2-15.2 8.5 0 15.3 6.8 15.3 15.2z"/><path class="X" d="m45.2 292.4c0 8.2-6.6 14.8-14.8 14.8-8.1 0-14.8-6.6-14.8-14.8 0-8.2 6.7-14.8 14.8-14.8 8.2 0 14.8 6.6 14.8 14.8z"/><path class="X" d="m44.8 292.4c0 7.9-6.4 14.4-14.4 14.4-7.9 0-14.3-6.5-14.3-14.4 0-7.9 6.4-14.3 14.3-14.3 8 0 14.4 6.4 14.4 14.3z"/><path class="X" d="m44.3 292.4c0 7.7-6.2 13.9-13.9 13.9-7.6 0-13.9-6.2-13.9-13.9 0-7.7 6.3-13.9 13.9-13.9 7.7 0 13.9 6.2 13.9 13.9z"/><path class="X" d="m43.9 292.4c0 7.4-6 13.5-13.5 13.5-7.4 0-13.4-6.1-13.4-13.5 0-7.4 6-13.4 13.4-13.4 7.5 0 13.5 6 13.5 13.4z"/><path class="Y" d="m43.4 292.4c0 7.2-5.8 13-13 13-7.1 0-13-5.8-13-13 0-7.2 5.9-13 13-13 7.2 0 13 5.8 13 13z"/><path class="Y" d="m43 292.4c0 6.9-5.6 12.6-12.6 12.6-6.9 0-12.5-5.7-12.5-12.6 0-6.9 5.6-12.5 12.5-12.5 7 0 12.6 5.6 12.6 12.5z"/><path class="Y" d="m42.5 292.4c0 6.7-5.4 12.1-12.1 12.1-6.6 0-12.1-5.4-12.1-12.1 0-6.7 5.5-12.1 12.1-12.1 6.7 0 12.1 5.4 12.1 12.1z"/><path class="Y" d="m42.1 292.4c0 6.4-5.2 11.7-11.7 11.7-6.4 0-11.6-5.3-11.6-11.7 0-6.4 5.2-11.6 11.6-11.6 6.5 0 11.7 5.2 11.7 11.6z"/><path class="Y" d="m41.6 292.4c0 6.2-5 11.2-11.2 11.2-6.2 0-11.2-5-11.2-11.2 0-6.2 5-11.2 11.2-11.2 6.2 0 11.2 5 11.2 11.2z"/><path class="Z" d="m41.2 292.4c0 6-4.8 10.8-10.8 10.8-5.9 0-10.7-4.8-10.7-10.8 0-5.9 4.8-10.8 10.7-10.8 6 0 10.8 4.9 10.8 10.8z"/><path class="Z" d="m40.8 292.4c0 5.7-4.7 10.3-10.4 10.3-5.7 0-10.3-4.6-10.3-10.3 0-5.7 4.6-10.3 10.3-10.3 5.7 0 10.4 4.6 10.4 10.3z"/><path class="Z" d="m40.3 292.4c0 5.5-4.4 9.9-9.9 9.9-5.4 0-9.8-4.4-9.8-9.9 0-5.4 4.4-9.9 9.8-9.9 5.5 0 9.9 4.5 9.9 9.9z"/><path class="Z" d="m39.9 292.4c0 5.2-4.3 9.4-9.5 9.4-5.2 0-9.4-4.2-9.4-9.4 0-5.2 4.2-9.4 9.4-9.4 5.2 0 9.5 4.2 9.5 9.4z"/><path class="Z" d="m39.4 292.4c0 5-4 9-9 9-4.9 0-8.9-4-8.9-9 0-4.9 4-9 8.9-9 5 0 9 4.1 9 9z"/><path class="a0" d="m39 292.4c0 4.7-3.9 8.5-8.6 8.5-4.7 0-8.5-3.8-8.5-8.5 0-4.7 3.8-8.5 8.5-8.5 4.7 0 8.6 3.8 8.6 8.5z"/><path class="a0" d="m38.5 292.4c0 4.5-3.6 8.1-8.1 8.1-4.4 0-8-3.6-8-8.1 0-4.4 3.6-8.1 8-8.1 4.5 0 8.1 3.7 8.1 8.1z"/><path class="a1" d="m38.1 292.4c0 4.2-3.5 7.6-7.7 7.6-4.2 0-7.6-3.4-7.6-7.6 0-4.2 3.4-7.6 7.6-7.6 4.2 0 7.7 3.4 7.7 7.6z"/></g><path class="a2" d="m50.1 274.6c0 13.8-11.2 24.9-25 24.9-13.7 0-24.9-11.1-24.9-24.9 0-13.8 11.2-24.9 24.9-24.9 13.8 0 25 11.1 25 24.9z"/><path fill-rule="evenodd" class="I" d="m36.1 270.8v10.5c0 2-1.6 3.6-3.6 3.6h-14.8c-1.9 0-3.6-1.6-3.6-3.6v-10.5c0-2 1.7-3.6 3.6-3.6h1.3l1.8-2.6c0.2-0.2 0.4-0.3 0.7-0.3h7.3c0.2 0 0.5 0.1 0.6 0.3l1.8 2.6h1.3c2 0 3.6 1.6 3.6 3.6zm-5.7 5.2c0-3-2.3-5.4-5.3-5.4-2.9 0-5.3 2.4-5.3 5.4 0 2.9 2.4 5.3 5.3 5.3 3 0 5.3-2.4 5.3-5.3z"/><path class="D" d="m27.8 276c0 1.4-1.2 2.6-2.7 2.6-1.4 0-2.6-1.2-2.6-2.6 0-1.5 1.2-2.7 2.6-2.7 1.5 0 2.7 1.2 2.7 2.7z"/><g style="opacity:.4;mix-blend-mode:multiply"><path class="Q" d="m112.3 192.3c0 16.8-13.6 30.5-30.5 30.5-16.8 0-30.5-13.7-30.5-30.5 0-16.8 13.7-30.5 30.5-30.5 16.9 0 30.5 13.7 30.5 30.5z"/><path class="Q" d="m111.9 192.3c0 16.6-13.5 30.1-30.1 30.1-16.6 0-30-13.5-30-30.1 0-16.6 13.4-30 30-30 16.6 0 30.1 13.4 30.1 30z"/><path class="Q" d="m111.4 192.3c0 16.4-13.2 29.6-29.6 29.6-16.3 0-29.6-13.2-29.6-29.6 0-16.3 13.3-29.6 29.6-29.6 16.4 0 29.6 13.3 29.6 29.6z"/><path class="R" d="m111 192.3c0 16.1-13.1 29.2-29.2 29.2-16.1 0-29.1-13.1-29.1-29.2 0-16.1 13-29.1 29.1-29.1 16.1 0 29.2 13 29.2 29.1z"/><path class="R" d="m110.5 192.3c0 15.9-12.8 28.7-28.7 28.7-15.8 0-28.7-12.8-28.7-28.7 0-15.8 12.9-28.7 28.7-28.7 15.9 0 28.7 12.9 28.7 28.7z"/><path class="R" d="m110.1 192.3c0 15.6-12.7 28.3-28.3 28.3-15.6 0-28.2-12.7-28.2-28.3 0-15.6 12.6-28.2 28.2-28.2 15.6 0 28.3 12.6 28.3 28.2z"/><path class="R" d="m109.6 192.3c0 15.4-12.4 27.8-27.8 27.8-15.3 0-27.8-12.4-27.8-27.8 0-15.3 12.5-27.8 27.8-27.8 15.4 0 27.8 12.5 27.8 27.8z"/><path class="R" d="m109.2 192.3c0 15.1-12.3 27.4-27.4 27.4-15.1 0-27.3-12.3-27.3-27.4 0-15.1 12.2-27.3 27.3-27.3 15.1 0 27.4 12.2 27.4 27.3z"/><path class="S" d="m108.7 192.3c0 14.9-12 26.9-26.9 26.9-14.8 0-26.9-12-26.9-26.9 0-14.9 12.1-26.9 26.9-26.9 14.9 0 26.9 12 26.9 26.9z"/><path class="S" d="m108.3 192.3c0 14.6-11.9 26.5-26.5 26.5-14.6 0-26.4-11.9-26.4-26.5 0-14.6 11.8-26.4 26.4-26.4 14.6 0 26.5 11.8 26.5 26.4z"/><path class="S" d="m107.8 192.3c0 14.4-11.6 26-26 26-14.3 0-26-11.6-26-26 0-14.4 11.7-26 26-26 14.4 0 26 11.6 26 26z"/><path class="S" d="m107.4 192.3c0 14.1-11.5 25.6-25.6 25.6-14.1 0-25.5-11.5-25.5-25.6 0-14.1 11.4-25.6 25.5-25.6 14.1 0 25.6 11.5 25.6 25.6z"/><path class="S" d="m106.9 192.3c0 13.9-11.2 25.1-25.1 25.1-13.9 0-25.1-11.2-25.1-25.1 0-13.9 11.2-25.1 25.1-25.1 13.9 0 25.1 11.2 25.1 25.1z"/><path class="T" d="m106.5 192.3c0 13.6-11.1 24.7-24.7 24.7-13.6 0-24.6-11.1-24.6-24.7 0-13.6 11-24.7 24.6-24.7 13.6 0 24.7 11.1 24.7 24.7z"/><path class="T" d="m106 192.3c0 13.4-10.8 24.2-24.2 24.2-13.4 0-24.2-10.8-24.2-24.2 0-13.4 10.8-24.2 24.2-24.2 13.4 0 24.2 10.8 24.2 24.2z"/><path class="T" d="m105.6 192.3c0 13.1-10.7 23.8-23.8 23.8-13.1 0-23.8-10.7-23.8-23.8 0-13.1 10.7-23.8 23.8-23.8 13.1 0 23.8 10.7 23.8 23.8z"/><path class="T" d="m105.1 192.3c0 12.9-10.4 23.3-23.3 23.3-12.9 0-23.3-10.4-23.3-23.3 0-12.9 10.4-23.3 23.3-23.3 12.9 0 23.3 10.4 23.3 23.3z"/><path class="T" d="m104.7 192.3c0 12.6-10.3 22.9-22.9 22.9-12.6 0-22.9-10.3-22.9-22.9 0-12.6 10.3-22.9 22.9-22.9 12.6 0 22.9 10.3 22.9 22.9z"/><path class="U" d="m104.2 192.3c0 12.4-10 22.4-22.4 22.4-12.4 0-22.4-10-22.4-22.4 0-12.4 10-22.4 22.4-22.4 12.4 0 22.4 10 22.4 22.4z"/><path class="U" d="m103.8 192.3c0 12.1-9.8 22-22 22-12.1 0-22-9.9-22-22 0-12.1 9.9-22 22-22 12.2 0 22 9.9 22 22z"/><path class="U" d="m103.3 192.3c0 11.9-9.6 21.5-21.5 21.5-11.9 0-21.5-9.6-21.5-21.5 0-11.9 9.6-21.5 21.5-21.5 11.9 0 21.5 9.6 21.5 21.5z"/><path class="U" d="m102.9 192.3c0 11.6-9.4 21.1-21.1 21.1-11.6 0-21.1-9.5-21.1-21.1 0-11.6 9.5-21.1 21.1-21.1 11.7 0 21.1 9.5 21.1 21.1z"/><path class="U" d="m102.4 192.3c0 11.4-9.2 20.6-20.6 20.6-11.4 0-20.6-9.2-20.6-20.6 0-11.4 9.2-20.6 20.6-20.6 11.4 0 20.6 9.2 20.6 20.6z"/><path class="V" d="m102 192.3c0 11.2-9 20.2-20.2 20.2-11.1 0-20.2-9-20.2-20.2 0-11.1 9.1-20.2 20.2-20.2 11.2 0 20.2 9.1 20.2 20.2z"/><path class="V" d="m101.5 192.3c0 10.9-8.8 19.7-19.7 19.7-10.9 0-19.7-8.8-19.7-19.7 0-10.9 8.8-19.7 19.7-19.7 10.9 0 19.7 8.8 19.7 19.7z"/><path class="V" d="m101.1 192.3c0 10.7-8.6 19.3-19.3 19.3-10.6 0-19.3-8.6-19.3-19.3 0-10.6 8.7-19.3 19.3-19.3 10.7 0 19.3 8.7 19.3 19.3z"/><path class="V" d="m100.6 192.3c0 10.4-8.4 18.8-18.8 18.8-10.4 0-18.8-8.4-18.8-18.8 0-10.4 8.4-18.8 18.8-18.8 10.4 0 18.8 8.4 18.8 18.8z"/><path class="V" d="m100.2 192.3c0 10.2-8.2 18.4-18.4 18.4-10.1 0-18.4-8.2-18.4-18.4 0-10.1 8.3-18.4 18.4-18.4 10.2 0 18.4 8.3 18.4 18.4z"/><path class="V" d="m99.8 192.3c0 9.9-8.1 17.9-18 17.9-9.9 0-17.9-8-17.9-17.9 0-9.9 8-17.9 17.9-17.9 9.9 0 18 8 18 17.9z"/><path class="W" d="m99.3 192.3c0 9.7-7.8 17.5-17.5 17.5-9.6 0-17.5-7.8-17.5-17.5 0-9.7 7.9-17.5 17.5-17.5 9.7 0 17.5 7.8 17.5 17.5z"/><path class="W" d="m98.9 192.3c0 9.4-7.7 17-17.1 17-9.4 0-17-7.6-17-17 0-9.4 7.6-17 17-17 9.4 0 17.1 7.6 17.1 17z"/><path class="W" d="m98.4 192.3c0 9.2-7.4 16.6-16.6 16.6-9.1 0-16.6-7.4-16.6-16.6 0-9.2 7.5-16.6 16.6-16.6 9.2 0 16.6 7.4 16.6 16.6z"/><path class="W" d="m98 192.3c0 8.9-7.3 16.2-16.2 16.2-8.9 0-16.1-7.3-16.1-16.2 0-8.9 7.2-16.1 16.1-16.1 8.9 0 16.2 7.2 16.2 16.1z"/><path class="W" d="m97.5 192.3c0 8.7-7 15.7-15.7 15.7-8.7 0-15.7-7-15.7-15.7 0-8.7 7-15.7 15.7-15.7 8.7 0 15.7 7 15.7 15.7z"/><path class="X" d="m97.1 192.3c0 8.4-6.9 15.3-15.3 15.3-8.4 0-15.2-6.9-15.2-15.3 0-8.4 6.8-15.2 15.2-15.2 8.4 0 15.3 6.8 15.3 15.2z"/><path class="X" d="m96.6 192.3c0 8.2-6.6 14.8-14.8 14.8-8.2 0-14.8-6.6-14.8-14.8 0-8.2 6.6-14.8 14.8-14.8 8.2 0 14.8 6.6 14.8 14.8z"/><path class="X" d="m96.2 192.3c0 7.9-6.5 14.4-14.4 14.4-7.9 0-14.3-6.5-14.3-14.4 0-7.9 6.4-14.3 14.3-14.3 7.9 0 14.4 6.4 14.4 14.3z"/><path class="X" d="m95.7 192.3c0 7.7-6.2 13.9-13.9 13.9-7.7 0-13.9-6.2-13.9-13.9 0-7.7 6.2-13.9 13.9-13.9 7.7 0 13.9 6.2 13.9 13.9z"/><path class="X" d="m95.3 192.3c0 7.4-6.1 13.5-13.5 13.5-7.4 0-13.4-6.1-13.4-13.5 0-7.4 6-13.4 13.4-13.4 7.4 0 13.5 6 13.5 13.4z"/><path class="Y" d="m94.8 192.3c0 7.2-5.8 13-13 13-7.2 0-13-5.8-13-13 0-7.2 5.8-13 13-13 7.2 0 13 5.8 13 13z"/><path class="Y" d="m94.4 192.3c0 6.9-5.7 12.6-12.6 12.6-6.9 0-12.5-5.7-12.5-12.6 0-6.9 5.6-12.5 12.5-12.5 6.9 0 12.6 5.6 12.6 12.5z"/><path class="Y" d="m93.9 192.3c0 6.7-5.4 12.1-12.1 12.1-6.7 0-12.1-5.4-12.1-12.1 0-6.7 5.4-12.1 12.1-12.1 6.7 0 12.1 5.4 12.1 12.1z"/><path class="Y" d="m93.5 192.3c0 6.4-5.2 11.7-11.7 11.7-6.4 0-11.6-5.3-11.6-11.7 0-6.4 5.2-11.7 11.6-11.7 6.5 0 11.7 5.3 11.7 11.7z"/><path class="Y" d="m93 192.3c0 6.2-5 11.2-11.2 11.2-6.2 0-11.2-5-11.2-11.2 0-6.2 5-11.2 11.2-11.2 6.2 0 11.2 5 11.2 11.2z"/><path class="Z" d="m92.6 192.3c0 6-4.8 10.8-10.8 10.8-5.9 0-10.7-4.8-10.7-10.8 0-5.9 4.8-10.8 10.7-10.8 6 0 10.8 4.9 10.8 10.8z"/><path class="Z" d="m92.1 192.3c0 5.7-4.6 10.3-10.3 10.3-5.7 0-10.3-4.6-10.3-10.3 0-5.7 4.6-10.3 10.3-10.3 5.7 0 10.3 4.6 10.3 10.3z"/><path class="Z" d="m91.7 192.3c0 5.5-4.4 9.9-9.9 9.9-5.4 0-9.8-4.4-9.8-9.9 0-5.4 4.4-9.9 9.8-9.9 5.5 0 9.9 4.5 9.9 9.9z"/><path class="Z" d="m91.2 192.3c0 5.2-4.2 9.4-9.4 9.4-5.2 0-9.4-4.2-9.4-9.4 0-5.2 4.2-9.4 9.4-9.4 5.2 0 9.4 4.2 9.4 9.4z"/><path class="Z" d="m90.8 192.3c0 5-4 9-9 9-4.9 0-9-4-9-9 0-4.9 4.1-9 9-9 5 0 9 4.1 9 9z"/><path class="a0" d="m90.3 192.3c0 4.7-3.8 8.5-8.5 8.5-4.7 0-8.5-3.8-8.5-8.5 0-4.7 3.8-8.5 8.5-8.5 4.7 0 8.5 3.8 8.5 8.5z"/><path class="a0" d="m89.9 192.3c0 4.5-3.6 8.1-8.1 8.1-4.4 0-8.1-3.6-8.1-8.1 0-4.4 3.7-8.1 8.1-8.1 4.5 0 8.1 3.7 8.1 8.1z"/><path class="a1" d="m89.4 192.3c0 4.2-3.4 7.6-7.6 7.6-4.2 0-7.6-3.4-7.6-7.6 0-4.2 3.4-7.6 7.6-7.6 4.2 0 7.6 3.4 7.6 7.6z"/></g><path class="a3" d="m101.4 174.5c0 13.8-11.1 24.9-24.9 24.9-13.8 0-24.9-11.1-24.9-24.9 0-13.8 11.1-24.9 24.9-24.9 13.8 0 24.9 11.1 24.9 24.9z"/><path class="a4" d="m70.5 174.5v-6.5c0-1.7 1.8-2.7 3.2-1.9l5.6 3.3 5.7 3.3c1.4 0.8 1.4 2.8 0 3.6l-5.7 3.3-5.6 3.2c-1.4 0.9-3.2-0.2-3.2-1.8z"/><g style="opacity:.4;mix-blend-mode:multiply"><path class="Q" d="m112.3 389.1c0 16.9-13.6 30.5-30.5 30.5-16.8 0-30.5-13.6-30.5-30.5 0-16.8 13.7-30.5 30.5-30.5 16.9 0 30.5 13.7 30.5 30.5z"/><path class="Q" d="m111.9 389.1c0 16.6-13.5 30.1-30.1 30.1-16.6 0-30-13.5-30-30.1 0-16.6 13.4-30 30-30 16.6 0 30.1 13.4 30.1 30z"/><path class="Q" d="m111.4 389.1c0 16.4-13.2 29.6-29.6 29.6-16.3 0-29.6-13.2-29.6-29.6 0-16.3 13.3-29.6 29.6-29.6 16.4 0 29.6 13.3 29.6 29.6z"/><path class="R" d="m111 389.1c0 16.1-13.1 29.2-29.2 29.2-16.1 0-29.1-13.1-29.1-29.2 0-16.1 13-29.1 29.1-29.1 16.1 0 29.2 13 29.2 29.1z"/><path class="R" d="m110.5 389.1c0 15.9-12.8 28.7-28.7 28.7-15.8 0-28.7-12.8-28.7-28.7 0-15.8 12.9-28.7 28.7-28.7 15.9 0 28.7 12.9 28.7 28.7z"/><path class="R" d="m110.1 389.1c0 15.6-12.7 28.3-28.3 28.3-15.6 0-28.2-12.7-28.2-28.3 0-15.6 12.6-28.2 28.2-28.2 15.6 0 28.3 12.6 28.3 28.2z"/><path class="R" d="m109.6 389.1c0 15.4-12.4 27.8-27.8 27.8-15.3 0-27.8-12.4-27.8-27.8 0-15.3 12.5-27.8 27.8-27.8 15.4 0 27.8 12.5 27.8 27.8z"/><path class="R" d="m109.2 389.1c0 15.1-12.3 27.4-27.4 27.4-15.1 0-27.3-12.3-27.3-27.4 0-15.1 12.2-27.3 27.3-27.3 15.1 0 27.4 12.2 27.4 27.3z"/><path class="S" d="m108.7 389.1c0 14.9-12 26.9-26.9 26.9-14.8 0-26.9-12-26.9-26.9 0-14.8 12.1-26.9 26.9-26.9 14.9 0 26.9 12.1 26.9 26.9z"/><path class="S" d="m108.3 389.1c0 14.6-11.9 26.5-26.5 26.5-14.6 0-26.4-11.9-26.4-26.5 0-14.6 11.8-26.4 26.4-26.4 14.6 0 26.5 11.8 26.5 26.4z"/><path class="S" d="m107.8 389.1c0 14.4-11.6 26-26 26-14.3 0-26-11.6-26-26 0-14.3 11.7-26 26-26 14.4 0 26 11.7 26 26z"/><path class="S" d="m107.4 389.1c0 14.1-11.5 25.6-25.6 25.6-14.1 0-25.5-11.5-25.5-25.6 0-14.1 11.4-25.5 25.5-25.5 14.1 0 25.6 11.4 25.6 25.5z"/><path class="S" d="m106.9 389.1c0 13.9-11.2 25.1-25.1 25.1-13.9 0-25.1-11.2-25.1-25.1 0-13.8 11.2-25.1 25.1-25.1 13.9 0 25.1 11.3 25.1 25.1z"/><path class="T" d="m106.5 389.1c0 13.6-11.1 24.7-24.7 24.7-13.6 0-24.6-11.1-24.6-24.7 0-13.6 11-24.6 24.6-24.6 13.6 0 24.7 11 24.7 24.6z"/><path class="T" d="m106 389.1c0 13.4-10.8 24.2-24.2 24.2-13.4 0-24.2-10.8-24.2-24.2 0-13.3 10.8-24.2 24.2-24.2 13.4 0 24.2 10.9 24.2 24.2z"/><path class="T" d="m105.6 389.1c0 13.1-10.7 23.8-23.8 23.8-13.1 0-23.8-10.7-23.8-23.8 0-13.1 10.7-23.7 23.8-23.7 13.1 0 23.8 10.6 23.8 23.7z"/><path class="T" d="m105.1 389.1c0 12.9-10.4 23.3-23.3 23.3-12.9 0-23.3-10.4-23.3-23.3 0-12.9 10.4-23.3 23.3-23.3 12.9 0 23.3 10.4 23.3 23.3z"/><path class="T" d="m104.7 389.1c0 12.7-10.3 22.9-22.9 22.9-12.6 0-22.9-10.2-22.9-22.9 0-12.6 10.3-22.8 22.9-22.8 12.6 0 22.9 10.2 22.9 22.8z"/><path class="U" d="m104.2 389.1c0 12.4-10 22.4-22.4 22.4-12.4 0-22.4-10-22.4-22.4 0-12.4 10-22.4 22.4-22.4 12.4 0 22.4 10 22.4 22.4z"/><path class="U" d="m103.8 389.1c0 12.2-9.8 22-22 22-12.1 0-22-9.8-22-22 0-12.1 9.9-21.9 22-21.9 12.2 0 22 9.8 22 21.9z"/><path class="U" d="m103.3 389.1c0 11.9-9.6 21.5-21.5 21.5-11.9 0-21.5-9.6-21.5-21.5 0-11.9 9.6-21.5 21.5-21.5 11.9 0 21.5 9.6 21.5 21.5z"/><path class="U" d="m102.9 389.1c0 11.7-9.4 21.1-21.1 21.1-11.6 0-21.1-9.4-21.1-21.1 0-11.6 9.5-21.1 21.1-21.1 11.7 0 21.1 9.5 21.1 21.1z"/><path class="U" d="m102.4 389.1c0 11.4-9.2 20.7-20.6 20.7-11.4 0-20.6-9.3-20.6-20.7 0-11.4 9.2-20.6 20.6-20.6 11.4 0 20.6 9.2 20.6 20.6z"/><path class="V" d="m102 389.1c0 11.2-9 20.2-20.2 20.2-11.1 0-20.2-9-20.2-20.2 0-11.1 9.1-20.2 20.2-20.2 11.2 0 20.2 9.1 20.2 20.2z"/><path class="V" d="m101.5 389.1c0 10.9-8.8 19.8-19.7 19.8-10.9 0-19.7-8.9-19.7-19.8 0-10.9 8.8-19.7 19.7-19.7 10.9 0 19.7 8.8 19.7 19.7z"/><path class="V" d="m101.1 389.1c0 10.7-8.6 19.3-19.3 19.3-10.6 0-19.3-8.6-19.3-19.3 0-10.6 8.7-19.3 19.3-19.3 10.7 0 19.3 8.7 19.3 19.3z"/><path class="V" d="m100.6 389.1c0 10.4-8.4 18.9-18.8 18.9-10.4 0-18.8-8.5-18.8-18.9 0-10.4 8.4-18.8 18.8-18.8 10.4 0 18.8 8.4 18.8 18.8z"/><path class="V" d="m100.2 389.1c0 10.2-8.2 18.4-18.4 18.4-10.1 0-18.4-8.2-18.4-18.4 0-10.1 8.3-18.4 18.4-18.4 10.2 0 18.4 8.3 18.4 18.4z"/><path class="V" d="m99.8 389.1c0 9.9-8.1 18-18 18-9.9 0-17.9-8.1-17.9-18 0-9.9 8-17.9 17.9-17.9 9.9 0 18 8 18 17.9z"/><path class="W" d="m99.3 389.1c0 9.7-7.8 17.5-17.5 17.5-9.6 0-17.5-7.8-17.5-17.5 0-9.6 7.9-17.5 17.5-17.5 9.7 0 17.5 7.9 17.5 17.5z"/><path class="W" d="m98.9 389.1c0 9.4-7.7 17.1-17.1 17.1-9.4 0-17-7.7-17-17.1 0-9.4 7.6-17 17-17 9.4 0 17.1 7.6 17.1 17z"/><path class="W" d="m98.4 389.1c0 9.2-7.4 16.6-16.6 16.6-9.1 0-16.6-7.4-16.6-16.6 0-9.1 7.5-16.6 16.6-16.6 9.2 0 16.6 7.5 16.6 16.6z"/><path class="W" d="m98 389.1c0 8.9-7.3 16.2-16.2 16.2-8.9 0-16.1-7.3-16.1-16.2 0-8.9 7.2-16.1 16.1-16.1 8.9 0 16.2 7.2 16.2 16.1z"/><path class="W" d="m97.5 389.1c0 8.7-7 15.7-15.7 15.7-8.7 0-15.7-7-15.7-15.7 0-8.6 7-15.7 15.7-15.7 8.7 0 15.7 7.1 15.7 15.7z"/><path class="X" d="m97.1 389.1c0 8.4-6.9 15.3-15.3 15.3-8.4 0-15.2-6.9-15.2-15.3 0-8.4 6.8-15.2 15.2-15.2 8.4 0 15.3 6.8 15.3 15.2z"/><path class="X" d="m96.6 389.1c0 8.2-6.6 14.8-14.8 14.8-8.2 0-14.8-6.6-14.8-14.8 0-8.1 6.6-14.8 14.8-14.8 8.2 0 14.8 6.7 14.8 14.8z"/><path class="X" d="m96.2 389.1c0 7.9-6.5 14.4-14.4 14.4-7.9 0-14.3-6.5-14.3-14.4 0-7.9 6.4-14.3 14.3-14.3 7.9 0 14.4 6.4 14.4 14.3z"/><path class="X" d="m95.7 389.1c0 7.7-6.2 13.9-13.9 13.9-7.7 0-13.9-6.2-13.9-13.9 0-7.7 6.2-13.9 13.9-13.9 7.7 0 13.9 6.2 13.9 13.9z"/><path class="X" d="m95.3 389.1c0 7.5-6.1 13.5-13.5 13.5-7.4 0-13.4-6-13.4-13.5 0-7.4 6-13.4 13.4-13.4 7.4 0 13.5 6 13.5 13.4z"/><path class="Y" d="m94.8 389.1c0 7.2-5.8 13-13 13-7.2 0-13-5.8-13-13 0-7.2 5.8-13 13-13 7.2 0 13 5.8 13 13z"/><path class="Y" d="m94.4 389.1c0 7-5.7 12.6-12.6 12.6-6.9 0-12.5-5.6-12.5-12.6 0-6.9 5.6-12.5 12.5-12.5 6.9 0 12.6 5.6 12.6 12.5z"/><path class="Y" d="m93.9 389.1c0 6.7-5.4 12.1-12.1 12.1-6.7 0-12.1-5.4-12.1-12.1 0-6.7 5.4-12.1 12.1-12.1 6.7 0 12.1 5.4 12.1 12.1z"/><path class="Y" d="m93.5 389.1c0 6.5-5.2 11.7-11.7 11.7-6.4 0-11.6-5.2-11.6-11.7 0-6.4 5.2-11.6 11.6-11.6 6.5 0 11.7 5.2 11.7 11.6z"/><path class="Y" d="m93 389.1c0 6.2-5 11.2-11.2 11.2-6.2 0-11.2-5-11.2-11.2 0-6.2 5-11.2 11.2-11.2 6.2 0 11.2 5 11.2 11.2z"/><path class="Z" d="m92.6 389.1c0 6-4.8 10.8-10.8 10.8-5.9 0-10.7-4.8-10.7-10.8 0-5.9 4.8-10.7 10.7-10.7 6 0 10.8 4.8 10.8 10.7z"/><path class="Z" d="m92.1 389.1c0 5.7-4.6 10.3-10.3 10.3-5.7 0-10.3-4.6-10.3-10.3 0-5.7 4.6-10.3 10.3-10.3 5.7 0 10.3 4.6 10.3 10.3z"/><path class="Z" d="m91.7 389.1c0 5.5-4.4 9.9-9.9 9.9-5.4 0-9.8-4.4-9.8-9.9 0-5.4 4.4-9.8 9.8-9.8 5.5 0 9.9 4.4 9.9 9.8z"/><path class="Z" d="m91.2 389.1c0 5.2-4.2 9.4-9.4 9.4-5.2 0-9.4-4.2-9.4-9.4 0-5.2 4.2-9.4 9.4-9.4 5.2 0 9.4 4.2 9.4 9.4z"/><path class="Z" d="m90.8 389.1c0 5-4 9-9 9-4.9 0-9-4-9-9 0-4.9 4.1-8.9 9-8.9 5 0 9 4 9 8.9z"/><path class="a0" d="m90.3 389.1c0 4.7-3.8 8.5-8.5 8.5-4.7 0-8.5-3.8-8.5-8.5 0-4.7 3.8-8.5 8.5-8.5 4.7 0 8.5 3.8 8.5 8.5z"/><path class="a0" d="m89.9 389.1c0 4.5-3.6 8.1-8.1 8.1-4.4 0-8.1-3.6-8.1-8.1 0-4.4 3.7-8 8.1-8 4.5 0 8.1 3.6 8.1 8z"/><path class="a1" d="m89.4 389.1c0 4.2-3.4 7.6-7.6 7.6-4.2 0-7.6-3.4-7.6-7.6 0-4.2 3.4-7.6 7.6-7.6 4.2 0 7.6 3.4 7.6 7.6z"/></g><path class="a5" d="m101.4 371.3c0 13.8-11.1 24.9-24.9 24.9-13.8 0-24.9-11.1-24.9-24.9 0-13.8 11.1-24.9 24.9-24.9 13.8 0 24.9 11.1 24.9 24.9z"/><path class="I" d="m79.1 380q-4.8 0.8-9.7 0c-1.7-0.3-3.1-1.7-3.4-3.5q-0.8-4.8 0-9.6c0.3-1.8 1.7-3.2 3.4-3.5q4.9-0.8 9.7 0c1.8 0.3 3.1 1.7 3.4 3.5q0.9 4.8 0 9.6c-0.3 1.8-1.6 3.2-3.4 3.5z"/><path class="I" d="m89.4 368.7v5.8c0 1.2-1.2 1.9-2.2 1.3l-1.7-1c-0.7-0.4-1.1-1-1.1-1.8v-2.8c0-0.7 0.4-1.4 1.1-1.8l1.7-1c1-0.6 2.2 0.2 2.2 1.3z"/><g style="opacity:.3;mix-blend-mode:multiply"><path class="p" d="m317.1 387.6h-147.6c-15.1 0-27.3-12.2-27.3-27.3v-56.1c0-15 12.2-27.2 27.3-27.2h147.6c15 0 27.2 12.2 27.2 27.2v56.1c0 15.1-12.2 27.3-27.2 27.3z"/><path class="p" d="m316.8 387.1h-147c-14.8 0-26.9-12-26.9-26.9v-55.9c0-14.8 12.1-26.8 26.9-26.8h147c14.8 0 26.8 12 26.8 26.8v55.9c0 14.9-12 26.9-26.8 26.9z"/><path class="p" d="m316.5 386.6h-146.4c-14.6 0-26.5-11.9-26.5-26.5v-55.7c0-14.6 11.9-26.5 26.5-26.5h146.4c14.6 0 26.4 11.9 26.4 26.5v55.7c0 14.6-11.8 26.5-26.4 26.5z"/><path class="q" d="m316.2 386.1h-145.8c-14.4 0-26.1-11.7-26.1-26v-55.6c0-14.4 11.7-26.1 26.1-26.1h145.8c14.4 0 26.1 11.7 26.1 26.1v55.6c0 14.3-11.7 26-26.1 26z"/><path class="q" d="m315.9 385.6h-145.3c-14.1 0-25.6-11.5-25.6-25.6v-55.4c0-14.2 11.5-25.7 25.6-25.7h145.3c14.2 0 25.7 11.5 25.7 25.7v55.4c0 14.1-11.5 25.6-25.7 25.6z"/><path class="q" d="m315.6 385.1h-144.7c-13.9 0-25.2-11.3-25.2-25.2v-55.3c0-13.9 11.3-25.2 25.2-25.2h144.7c14 0 25.3 11.3 25.3 25.2v55.3c0 13.9-11.3 25.2-25.3 25.2z"/><path class="q" d="m315.3 384.7h-144.1c-13.7 0-24.8-11.2-24.8-24.9v-55.1c0-13.7 11.1-24.8 24.8-24.8h144.1c13.8 0 24.9 11.1 24.9 24.8v55.1c0 13.7-11.1 24.9-24.9 24.9z"/><path class="q" d="m315.1 384.2h-143.6c-13.5 0-24.4-11-24.4-24.5v-54.9c0-13.5 10.9-24.4 24.4-24.4h143.6c13.5 0 24.4 10.9 24.4 24.4v54.9c0 13.5-10.9 24.5-24.4 24.5z"/><path class="r" d="m314.8 383.7h-143c-13.3 0-24-10.8-24-24v-54.8c0-13.3 10.7-24.1 24-24.1h143c13.2 0 24 10.8 24 24.1v54.8c0 13.2-10.8 24-24 24z"/><path class="r" d="m314.5 383.2h-142.4c-13.1 0-23.7-10.6-23.7-23.6v-54.6c0-13.1 10.6-23.7 23.7-23.7h142.4c13 0 23.6 10.6 23.6 23.7v54.6c0 13-10.6 23.6-23.6 23.6z"/><path class="r" d="m314.2 382.7h-141.8c-12.9 0-23.3-10.4-23.3-23.2v-54.5c0-12.8 10.4-23.2 23.3-23.2h141.8c12.8 0 23.2 10.4 23.2 23.2v54.5c0 12.8-10.4 23.2-23.2 23.2z"/><path class="r" d="m313.9 382.3h-141.3c-12.6 0-22.8-10.3-22.8-22.9v-54.3c0-12.6 10.2-22.8 22.8-22.8h141.3c12.6 0 22.8 10.2 22.8 22.8v54.3c0 12.6-10.2 22.9-22.8 22.9z"/><path class="r" d="m313.6 381.8h-140.7c-12.3 0-22.4-10.1-22.4-22.4v-54.2c0-12.4 10.1-22.4 22.4-22.4h140.7c12.4 0 22.5 10 22.5 22.4v54.2c0 12.3-10.1 22.4-22.5 22.4z"/><path class="s" d="m313.3 381.3h-140.1c-12.1 0-22-9.9-22-22v-54c0-12.2 9.9-22.1 22-22.1h140.1c12.2 0 22.1 9.9 22.1 22.1v54c0 12.1-9.9 22-22.1 22z"/><path class="s" d="m313.1 380.8h-139.6c-11.9 0-21.6-9.7-21.6-21.6v-53.9c0-11.9 9.7-21.6 21.6-21.6h139.6c11.9 0 21.6 9.7 21.6 21.6v53.9c0 11.9-9.7 21.6-21.6 21.6z"/><path class="s" d="m312.8 380.3h-139c-11.7 0-21.2-9.5-21.2-21.2v-53.7c0-11.7 9.5-21.2 21.2-21.2h139c11.7 0 21.2 9.5 21.2 21.2v53.7c0 11.7-9.5 21.2-21.2 21.2z"/><path class="s" d="m312.5 379.9h-138.4c-11.5 0-20.8-9.4-20.8-20.9v-53.5c0-11.5 9.3-20.8 20.8-20.8h138.4c11.5 0 20.8 9.3 20.8 20.8v53.5c0 11.5-9.3 20.9-20.8 20.9z"/><path class="s" d="m312.2 379.4h-137.8c-11.3 0-20.4-9.2-20.4-20.4v-53.4c0-11.3 9.1-20.4 20.4-20.4h137.8c11.3 0 20.4 9.1 20.4 20.4v53.4c0 11.2-9.1 20.4-20.4 20.4z"/><path class="t" d="m311.9 378.9h-137.2c-11.1 0-20-9-20-20v-53.2c0-11.1 8.9-20 20-20h137.2c11.1 0 20 8.9 20 20v53.2c0 11-8.9 20-20 20z"/><path class="t" d="m311.6 378.4h-136.7c-10.8 0-19.6-8.8-19.6-19.6v-53.1c0-10.8 8.8-19.6 19.6-19.6h136.7c10.8 0 19.6 8.8 19.6 19.6v53.1c0 10.8-8.8 19.6-19.6 19.6z"/><path class="t" d="m311.3 377.9h-136.1c-10.6 0-19.2-8.6-19.2-19.2v-52.9c0-10.6 8.6-19.2 19.2-19.2h136.1c10.6 0 19.2 8.6 19.2 19.2v52.9c0 10.6-8.6 19.2-19.2 19.2z"/><path class="t" d="m311.1 377.4h-135.6c-10.4 0-18.8-8.4-18.8-18.7v-52.8c0-10.4 8.4-18.8 18.8-18.8h135.6c10.3 0 18.7 8.4 18.7 18.8v52.8c0 10.3-8.4 18.7-18.7 18.7z"/><path class="t" d="m310.8 377h-135c-10.2 0-18.4-8.3-18.4-18.4v-52.6c0-10.2 8.2-18.4 18.4-18.4h135c10.1 0 18.4 8.2 18.4 18.4v52.6c0 10.1-8.3 18.4-18.4 18.4z"/><path class="u" d="m310.5 376.5h-134.4c-9.9 0-18-8.1-18-18v-52.5c0-9.9 8.1-17.9 18-17.9h134.4c9.9 0 18 8 18 17.9v52.5c0 9.9-8.1 18-18 18z"/><path class="u" d="m310.2 376h-133.8c-9.7 0-17.6-7.9-17.6-17.6v-52.3c0-9.7 7.9-17.6 17.6-17.6h133.8c9.7 0 17.6 7.9 17.6 17.6v52.3c0 9.7-7.9 17.6-17.6 17.6z"/><path class="u" d="m309.9 375.5h-133.2c-9.5 0-17.2-7.7-17.2-17.2v-52.1c0-9.5 7.7-17.2 17.2-17.2h133.2c9.5 0 17.2 7.7 17.2 17.2v52.1c0 9.5-7.7 17.2-17.2 17.2z"/><path class="u" d="m309.6 375h-132.7c-9.2 0-16.7-7.5-16.7-16.7v-52c0-9.3 7.5-16.8 16.7-16.8h132.7c9.3 0 16.8 7.5 16.8 16.8v52c0 9.2-7.5 16.7-16.8 16.7z"/><path class="u" d="m309.3 374.6h-132.1c-9 0-16.3-7.4-16.3-16.4v-51.8c0-9.1 7.3-16.4 16.3-16.4h132.1c9.1 0 16.4 7.3 16.4 16.4v51.8c0 9-7.3 16.4-16.4 16.4z"/><path class="u" d="m309 374.1h-131.5c-8.8 0-16-7.2-16-16v-51.7c0-8.8 7.2-15.9 16-15.9h131.5c8.9 0 16 7.1 16 15.9v51.7c0 8.8-7.1 16-16 16z"/><path class="v" d="m308.8 373.6h-131c-8.6 0-15.6-7-15.6-15.6v-51.5c0-8.6 7-15.5 15.6-15.5h131c8.6 0 15.5 6.9 15.5 15.5v51.5c0 8.6-6.9 15.6-15.5 15.6z"/><path class="v" d="m308.5 373.1h-130.4c-8.4 0-15.2-6.8-15.2-15.2v-51.3c0-8.4 6.8-15.2 15.2-15.2h130.4c8.3 0 15.1 6.8 15.1 15.2v51.3c0 8.4-6.8 15.2-15.1 15.2z"/><path class="v" d="m308.2 372.6h-129.8c-8.2 0-14.8-6.6-14.8-14.7v-51.2c0-8.2 6.6-14.8 14.8-14.8h129.8c8.1 0 14.7 6.6 14.7 14.8v51.2c0 8.1-6.6 14.7-14.7 14.7z"/><path class="v" d="m307.9 372.1h-129.2c-8 0-14.4-6.4-14.4-14.3v-51c0-8 6.4-14.4 14.4-14.4h129.2c7.9 0 14.4 6.4 14.4 14.4v51c0 7.9-6.5 14.3-14.4 14.3z"/><path class="v" d="m307.6 371.7h-128.6c-7.8 0-14-6.3-14-14v-50.9c0-7.7 6.2-13.9 14-13.9h128.6c7.7 0 14 6.2 14 13.9v50.9c0 7.7-6.3 14-14 14z"/><path class="w" d="m307.3 371.2h-128.1c-7.4 0-13.5-6.1-13.5-13.6v-50.7c0-7.5 6.1-13.5 13.5-13.5h128.1c7.5 0 13.6 6 13.6 13.5v50.7c0 7.5-6.1 13.6-13.6 13.6z"/><path class="w" d="m307 370.7h-127.5c-7.2 0-13.1-5.9-13.1-13.1v-50.6c0-7.3 5.9-13.2 13.1-13.2h127.5c7.3 0 13.2 5.9 13.2 13.2v50.6c0 7.2-5.9 13.1-13.2 13.1z"/><path class="w" d="m306.8 370.2h-127c-7 0-12.7-5.7-12.7-12.7v-50.4c0-7.1 5.7-12.8 12.7-12.8h127c7 0 12.7 5.7 12.7 12.8v50.4c0 7-5.7 12.7-12.7 12.7z"/><path class="w" d="m306.5 369.7h-126.4c-6.8 0-12.3-5.5-12.3-12.3v-50.3c0-6.8 5.5-12.3 12.3-12.3h126.4c6.8 0 12.3 5.5 12.3 12.3v50.3c0 6.8-5.5 12.3-12.3 12.3z"/><path class="w" d="m306.2 369.3h-125.8c-6.6 0-12-5.4-12-12v-50.1c0-6.6 5.4-11.9 12-11.9h125.8c6.6 0 11.9 5.3 11.9 11.9v50.1c0 6.6-5.3 12-11.9 12z"/><path class="x" d="m305.9 368.8h-125.2c-6.4 0-11.6-5.2-11.6-11.6v-49.9c0-6.4 5.2-11.5 11.6-11.5h125.2c6.4 0 11.5 5.1 11.5 11.5v49.9c0 6.4-5.1 11.6-11.5 11.6z"/><path class="x" d="m305.6 368.3h-124.6c-6.2 0-11.2-5-11.2-11.1v-49.8c0-6.2 5-11.2 11.2-11.2h124.6c6.2 0 11.1 5 11.1 11.2v49.8c0 6.1-4.9 11.1-11.1 11.1z"/><path class="x" d="m305.3 367.8h-124.1c-5.9 0-10.7-4.8-10.7-10.7v-49.6c0-6 4.8-10.8 10.7-10.8h124.1c5.9 0 10.7 4.8 10.7 10.8v49.6c0 5.9-4.8 10.7-10.7 10.7z"/><path class="x" d="m305 367.3h-123.5c-5.7 0-10.3-4.6-10.3-10.3v-49.5c0-5.7 4.6-10.3 10.3-10.3h123.5c5.7 0 10.4 4.6 10.4 10.3v49.5c0 5.7-4.7 10.3-10.4 10.3z"/><path class="x" d="m304.7 366.8h-122.9c-5.5 0-9.9-4.4-9.9-9.9v-49.3c0-5.5 4.4-9.9 9.9-9.9h122.9c5.5 0 10 4.4 10 9.9v49.3c0 5.5-4.5 9.9-10 9.9z"/><path class="y" d="m304.5 366.4h-122.4c-5.3 0-9.5-4.3-9.5-9.6v-49.1c0-5.3 4.2-9.5 9.5-9.5h122.4c5.2 0 9.5 4.2 9.5 9.5v49.1c0 5.3-4.3 9.6-9.5 9.6z"/><path class="y" d="m304.2 365.9h-121.8c-5 0-9.1-4.1-9.1-9.1v-49c0-5.1 4.1-9.1 9.1-9.1h121.8c5 0 9.1 4 9.1 9.1v49c0 5-4.1 9.1-9.1 9.1z"/><path class="y" d="m303.9 365.4h-121.2c-4.8 0-8.7-3.9-8.7-8.7v-48.8c0-4.9 3.9-8.8 8.7-8.8h121.2c4.8 0 8.7 3.9 8.7 8.8v48.8c0 4.8-3.9 8.7-8.7 8.7z"/><path class="y" d="m303.6 364.9h-120.6c-4.6 0-8.3-3.7-8.3-8.3v-48.7c0-4.6 3.7-8.3 8.3-8.3h120.6c4.6 0 8.3 3.7 8.3 8.3v48.7c0 4.6-3.7 8.3-8.3 8.3z"/><path class="y" d="m303.3 364.4h-120.1c-4.3 0-7.9-3.5-7.9-7.9v-48.5c0-4.4 3.6-7.9 7.9-7.9h120.1c4.4 0 7.9 3.5 7.9 7.9v48.5c0 4.4-3.5 7.9-7.9 7.9z"/><path class="z" d="m303 364h-119.5c-4.1 0-7.5-3.4-7.5-7.5v-48.4c0-4.2 3.4-7.5 7.5-7.5h119.5c4.2 0 7.5 3.3 7.5 7.5v48.4c0 4.1-3.3 7.5-7.5 7.5z"/><path class="z" d="m302.7 363.5h-118.9c-3.9 0-7.1-3.2-7.1-7.1v-48.2c0-4 3.2-7.1 7.1-7.1h118.9c4 0 7.1 3.1 7.1 7.1v48.2c0 3.9-3.1 7.1-7.1 7.1z"/><path class="A" d="m302.5 363h-118.4c-3.7 0-6.7-3-6.7-6.7v-48.1c0-3.7 3-6.7 6.7-6.7h118.4c3.7 0 6.7 3 6.7 6.7v48.1c0 3.7-3 6.7-6.7 6.7z"/></g><path class="a6" d="m306.9 360.2h-141.6c-7.8 0-14.1-6.4-14.1-14.1v-73.7c0-7.8 6.3-14.2 14.1-14.2h141.6c7.7 0 14.1 6.4 14.1 14.2v73.7c0 7.7-6.4 14.1-14.1 14.1z"/><path class="D" d="m178.2 338.3c-2.1 0-3.8-1.7-3.8-3.9v-49.2c0-2.2 1.7-3.9 3.8-3.9 2.2 0 3.9 1.7 3.9 3.9v49.2c0 2.2-1.7 3.9-3.9 3.9z"/><path class="D" d="m201.9 338.3c-2.2 0-3.9-1.7-3.9-3.9v-49.2c0-2.2 1.7-3.9 3.9-3.9 2.1 0 3.9 1.7 3.9 3.9v49.2c0 2.2-1.8 3.9-3.9 3.9z"/><path class="D" d="m225.5 338.3c-2.1 0-3.9-1.7-3.9-3.9v-49.2c0-2.2 1.8-3.9 3.9-3.9 2.2 0 3.9 1.7 3.9 3.9v49.2c0 2.2-1.7 3.9-3.9 3.9z"/><path class="D" d="m249.2 338.3c-2.2 0-3.9-1.7-3.9-3.9v-49.2c0-2.2 1.7-3.9 3.9-3.9 2.1 0 3.9 1.7 3.9 3.9v49.2c0 2.2-1.8 3.9-3.9 3.9z"/><path class="a7" d="m182.1 312.5v21.9c0 2.2-1.7 3.9-3.9 3.9-2.1 0-3.8-1.7-3.8-3.9v-21.9z"/><path class="a8" d="m205.8 297.7v36.7c0 2.2-1.8 3.9-3.9 3.9-2.2 0-3.9-1.7-3.9-3.9v-36.7z"/><path class="a9" d="m229.4 327v7.4c0 2.2-1.7 3.9-3.9 3.9-2.1 0-3.9-1.7-3.9-3.9v-7.4z"/><path class="aa" d="m253.1 305.1v29.3c0 2.2-1.8 3.9-3.9 3.9-2.2 0-3.9-1.7-3.9-3.9v-29.3z"/><text style="transform:matrix(2,0,0,2,265.068,288.964)" ><tspan x="0" y="0" class="J">Average
</tspan><tspan x="0" y="4.8" class="J">Points
</tspan></text><text style="transform:matrix(2,0,0,2,265.068,318.001)" ><tspan x="0" y="0" class="L">8.6
</tspan></text><g style="opacity:.5;mix-blend-mode:multiply"><path class="ab" d="m401.9 505.8h-29.1c-7.4 0-13.4-6-13.4-13.4v-172.7c0-7.4 6-13.4 13.4-13.4h29.1c7.5 0 13.5 6 13.5 13.4v172.7c0 7.4-6 13.4-13.5 13.4z"/><path class="ab" d="m401.8 505.5h-28.8c-7.4 0-13.3-6-13.3-13.3v-172.3c0-7.3 5.9-13.3 13.3-13.3h28.8c7.3 0 13.2 6 13.2 13.3v172.3c0 7.3-5.9 13.3-13.2 13.3z"/><path class="ab" d="m401.6 505.1h-28.4c-7.3 0-13.1-5.8-13.1-13.1v-171.9c0-7.2 5.8-13.1 13.1-13.1h28.4c7.2 0 13.1 5.9 13.1 13.1v171.9c0 7.3-5.9 13.1-13.1 13.1z"/><path class="ac" d="m401.4 504.8h-28.1c-7.1 0-12.9-5.8-12.9-13v-171.5c0-7.1 5.8-12.9 12.9-12.9h28.1c7.1 0 12.9 5.8 12.9 12.9v171.5c0 7.2-5.8 13-12.9 13z"/><path class="ac" d="m401.2 504.4h-27.7c-7 0-12.7-5.7-12.7-12.8v-171.1c0-7.1 5.7-12.8 12.7-12.8h27.7c7.1 0 12.8 5.7 12.8 12.8v171.1c0 7.1-5.7 12.8-12.8 12.8z"/><path class="ac" d="m401 504h-27.3c-7 0-12.6-5.6-12.6-12.6v-170.7c0-7 5.6-12.6 12.6-12.6h27.3c7 0 12.6 5.6 12.6 12.6v170.7c0 7-5.6 12.6-12.6 12.6z"/><path class="ac" d="m400.8 503.7h-26.9c-6.9 0-12.4-5.6-12.4-12.5v-170.3c0-6.9 5.5-12.4 12.4-12.4h26.9c6.9 0 12.5 5.5 12.5 12.4v170.3c0 6.9-5.6 12.5-12.5 12.5z"/><path class="ac" d="m400.7 503.3h-26.6c-6.8 0-12.3-5.5-12.3-12.3v-169.9c0-6.8 5.5-12.3 12.3-12.3h26.6c6.7 0 12.2 5.5 12.2 12.3v169.9c0 6.8-5.5 12.3-12.2 12.3z"/><path class="ad" d="m400.5 502.9h-26.2c-6.7 0-12.1-5.4-12.1-12.1v-169.5c0-6.7 5.4-12.1 12.1-12.1h26.2c6.7 0 12.1 5.4 12.1 12.1v169.5c0 6.7-5.4 12.1-12.1 12.1z"/><path class="ad" d="m400.3 502.6h-25.9c-6.5 0-11.9-5.4-11.9-12v-169.1c0-6.6 5.4-11.9 11.9-11.9h25.9c6.6 0 11.9 5.3 11.9 11.9v169.1c0 6.6-5.3 12-11.9 12z"/><path class="ad" d="m400.1 502.2h-25.5c-6.5 0-11.7-5.3-11.7-11.8v-168.7c0-6.5 5.2-11.8 11.7-11.8h25.5c6.5 0 11.8 5.3 11.8 11.8v168.7c0 6.5-5.3 11.8-11.8 11.8z"/><path class="ad" d="m399.9 501.8h-25.1c-6.4 0-11.6-5.2-11.6-11.6v-168.3c0-6.4 5.2-11.6 11.6-11.6h25.1c6.4 0 11.6 5.2 11.6 11.6v168.3c0 6.4-5.2 11.6-11.6 11.6z"/><path class="ad" d="m399.7 501.5h-24.7c-6.3 0-11.4-5.1-11.4-11.4v-168c0-6.3 5.1-11.4 11.4-11.4h24.7c6.4 0 11.5 5.1 11.5 11.4v168c0 6.3-5.1 11.4-11.5 11.4z"/><path class="ae" d="m399.6 501.1h-24.4c-6.2 0-11.3-5-11.3-11.2v-167.6c0-6.2 5.1-11.3 11.3-11.3h24.4c6.2 0 11.2 5.1 11.2 11.3v167.6c0 6.2-5 11.2-11.2 11.2z"/><path class="ae" d="m399.4 500.7h-24.1c-6.1 0-11-4.9-11-11v-167.2c0-6.2 4.9-11.1 11-11.1h24.1c6.1 0 11.1 4.9 11.1 11.1v167.2c0 6.1-5 11-11.1 11z"/><path class="ae" d="m399.2 500.4h-23.7c-6 0-10.9-4.9-10.9-10.9v-166.8c0-6.1 4.9-11 10.9-11h23.7c6 0 10.9 4.9 10.9 11v166.8c0 6-4.9 10.9-10.9 10.9z"/><path class="ae" d="m399 500h-23.3c-5.9 0-10.7-4.8-10.7-10.7v-166.4c0-6 4.8-10.8 10.7-10.8h23.3c5.9 0 10.8 4.8 10.8 10.8v166.4c0 5.9-4.9 10.7-10.8 10.7z"/><path class="ae" d="m398.8 499.6h-22.9c-5.8 0-10.6-4.7-10.6-10.5v-166c0-5.9 4.8-10.6 10.6-10.6h22.9c5.9 0 10.6 4.7 10.6 10.6v166c0 5.8-4.7 10.5-10.6 10.5z"/><path class="af" d="m398.7 499.3h-22.6c-5.8 0-10.4-4.7-10.4-10.4v-165.7c0-5.7 4.6-10.4 10.4-10.4h22.6c5.7 0 10.4 4.7 10.4 10.4v165.7c0 5.7-4.7 10.4-10.4 10.4z"/><path class="af" d="m398.5 498.9h-22.2c-5.7 0-10.3-4.6-10.3-10.2v-165.3c0-5.6 4.6-10.2 10.3-10.2h22.2c5.6 0 10.2 4.6 10.2 10.2v165.3c0 5.6-4.6 10.2-10.2 10.2z"/><path class="af" d="m398.3 498.5h-21.9c-5.5 0-10-4.5-10-10v-164.9c0-5.5 4.5-10 10-10h21.9c5.5 0 10.1 4.5 10.1 10v164.9c0 5.5-4.6 10-10.1 10z"/><path class="af" d="m398.1 498.2h-21.5c-5.4 0-9.9-4.5-9.9-9.9v-164.5c0-5.4 4.5-9.9 9.9-9.9h21.5c5.5 0 9.9 4.5 9.9 9.9v164.5c0 5.4-4.4 9.9-9.9 9.9z"/><path class="af" d="m397.9 497.8h-21.1c-5.4 0-9.7-4.3-9.7-9.7v-164.1c0-5.3 4.3-9.7 9.7-9.7h21.1c5.4 0 9.8 4.4 9.8 9.7v164.1c0 5.4-4.4 9.7-9.8 9.7z"/><path class="ag" d="m397.7 497.4h-20.7c-5.3 0-9.6-4.2-9.6-9.5v-163.7c0-5.2 4.3-9.5 9.6-9.5h20.7c5.3 0 9.6 4.3 9.6 9.5v163.7c0 5.3-4.3 9.5-9.6 9.5z"/><path class="ag" d="m397.6 497.1h-20.4c-5.2 0-9.4-4.2-9.4-9.4v-163.3c0-5.2 4.2-9.4 9.4-9.4h20.4c5.1 0 9.4 4.2 9.4 9.4v163.3c0 5.2-4.3 9.4-9.4 9.4z"/><path class="ag" d="m397.4 496.7h-20c-5.1 0-9.3-4.1-9.3-9.2v-162.9c0-5.1 4.2-9.2 9.3-9.2h20c5.1 0 9.2 4.1 9.2 9.2v162.9c0 5.1-4.1 9.2-9.2 9.2z"/><path class="ag" d="m397.2 496.4h-19.7c-5 0-9-4.1-9-9.1v-162.5c0-5 4-9 9-9h19.7c5 0 9 4 9 9v162.5c0 5-4 9.1-9 9.1z"/><path class="ag" d="m397 496h-19.3c-4.9 0-8.9-4-8.9-8.9v-162.1c0-4.9 4-8.9 8.9-8.9h19.3c4.9 0 8.9 4 8.9 8.9v162.1c0 4.9-4 8.9-8.9 8.9z"/><path class="ag" d="m396.8 495.6h-18.9c-4.8 0-8.7-3.9-8.7-8.7v-161.7c0-4.8 3.9-8.7 8.7-8.7h18.9c4.8 0 8.7 3.9 8.7 8.7v161.7c0 4.8-3.9 8.7-8.7 8.7z"/><path class="ah" d="m396.6 495.3h-18.5c-4.7 0-8.6-3.9-8.6-8.6v-161.3c0-4.7 3.9-8.5 8.6-8.5h18.5c4.8 0 8.6 3.8 8.6 8.5v161.3c0 4.7-3.8 8.6-8.6 8.6z"/><path class="ah" d="m396.5 494.9h-18.2c-4.7 0-8.4-3.8-8.4-8.4v-160.9c0-4.6 3.7-8.4 8.4-8.4h18.2c4.6 0 8.3 3.8 8.3 8.4v160.9c0 4.6-3.7 8.4-8.3 8.4z"/><path class="ah" d="m396.3 494.5h-17.9c-4.5 0-8.2-3.7-8.2-8.2v-160.5c0-4.5 3.7-8.2 8.2-8.2h17.9c4.5 0 8.2 3.7 8.2 8.2v160.5c0 4.5-3.7 8.2-8.2 8.2z"/><path class="ah" d="m396.1 494.2h-17.5c-4.4 0-8-3.6-8-8.1v-160.1c0-4.4 3.6-8 8-8h17.5c4.4 0 8 3.6 8 8v160.1c0 4.5-3.6 8.1-8 8.1z"/><path class="ah" d="m395.9 493.8h-17.1c-4.3 0-7.9-3.5-7.9-7.9v-159.7c0-4.3 3.6-7.9 7.9-7.9h17.1c4.4 0 7.9 3.6 7.9 7.9v159.7c0 4.4-3.5 7.9-7.9 7.9z"/><path class="ai" d="m395.7 493.4h-16.7c-4.3 0-7.7-3.4-7.7-7.7v-159.3c0-4.3 3.4-7.7 7.7-7.7h16.7c4.3 0 7.7 3.4 7.7 7.7v159.3c0 4.3-3.4 7.7-7.7 7.7z"/><path class="ai" d="m395.5 493.1h-16.3c-4.2 0-7.6-3.4-7.6-7.6v-158.9c0-4.2 3.4-7.5 7.6-7.5h16.3c4.2 0 7.6 3.3 7.6 7.5v158.9c0 4.2-3.4 7.6-7.6 7.6z"/><path class="ai" d="m395.4 492.7h-16c-4.1 0-7.4-3.3-7.4-7.4v-158.5c0-4.1 3.3-7.4 7.4-7.4h16c4 0 7.3 3.3 7.3 7.4v158.5c0 4.1-3.3 7.4-7.3 7.4z"/><path class="ai" d="m395.2 492.3h-15.7c-3.9 0-7.2-3.2-7.2-7.2v-158.1c0-4 3.3-7.2 7.2-7.2h15.7c4 0 7.2 3.2 7.2 7.2v158.1c0 4-3.2 7.2-7.2 7.2z"/><path class="ai" d="m395 492h-15.3c-3.9 0-7-3.2-7-7.1v-157.7c0-3.9 3.1-7.1 7-7.1h15.3c3.9 0 7 3.2 7 7.1v157.7c0 3.9-3.1 7.1-7 7.1z"/><path class="aj" d="m394.8 491.6h-14.9c-3.8 0-6.9-3.1-6.9-6.9v-157.3c0-3.8 3.1-6.9 6.9-6.9h14.9c3.8 0 6.9 3.1 6.9 6.9v157.3c0 3.8-3.1 6.9-6.9 6.9z"/><path class="aj" d="m394.6 491.2h-14.5c-3.7 0-6.7-3-6.7-6.7v-156.9c0-3.7 3-6.7 6.7-6.7h14.5c3.7 0 6.7 3 6.7 6.7v156.9c0 3.7-3 6.7-6.7 6.7z"/><path class="aj" d="m394.5 490.9h-14.2c-3.6 0-6.6-3-6.6-6.6v-156.5c0-3.6 3-6.6 6.6-6.6h14.2c3.6 0 6.5 3 6.5 6.6v156.5c0 3.6-2.9 6.6-6.5 6.6z"/><path class="aj" d="m394.3 490.5h-13.8c-3.6 0-6.4-2.8-6.4-6.4v-156.1c0-3.5 2.8-6.4 6.4-6.4h13.8c3.5 0 6.3 2.9 6.3 6.4v156.1c0 3.6-2.8 6.4-6.3 6.4z"/><path class="aj" d="m394.1 490.1h-13.5c-3.4 0-6.2-2.7-6.2-6.2v-155.7c0-3.5 2.8-6.2 6.2-6.2h13.5c3.4 0 6.2 2.7 6.2 6.2v155.7c0 3.5-2.8 6.2-6.2 6.2z"/><path class="ak" d="m393.9 489.8h-13.1c-3.3 0-6-2.7-6-6.1v-155.3c0-3.4 2.7-6.1 6-6.1h13.1c3.3 0 6 2.7 6 6.1v155.3c0 3.4-2.7 6.1-6 6.1z"/><path class="ak" d="m393.7 489.4h-12.7c-3.2 0-5.9-2.6-5.9-5.8v-155c0-3.3 2.7-5.9 5.9-5.9h12.7c3.3 0 5.9 2.6 5.9 5.9v155c0 3.2-2.6 5.8-5.9 5.8z"/><path class="ak" d="m393.5 489h-12.3c-3.2 0-5.7-2.5-5.7-5.6v-154.6c0-3.2 2.5-5.7 5.7-5.7h12.3c3.2 0 5.7 2.5 5.7 5.7v154.6c0 3.1-2.5 5.6-5.7 5.6z"/><path class="ak" d="m393.4 488.7h-12c-3.1 0-5.6-2.5-5.6-5.5v-154.2c0-3.1 2.5-5.6 5.6-5.6h12c3 0 5.5 2.5 5.5 5.6v154.2c0 3-2.5 5.5-5.5 5.5z"/><path class="ak" d="m393.2 488.3h-11.6c-3 0-5.4-2.4-5.4-5.3v-153.8c0-3 2.4-5.4 5.4-5.4h11.6c2.9 0 5.3 2.4 5.3 5.4v153.8c0 2.9-2.4 5.3-5.3 5.3z"/><path class="al" d="m393 488h-11.3c-2.8 0-5.2-2.4-5.2-5.2v-153.4c0-2.9 2.4-5.2 5.2-5.2h11.3c2.9 0 5.2 2.3 5.2 5.2v153.4c0 2.8-2.3 5.2-5.2 5.2z"/><path class="al" d="m392.8 487.6h-10.9c-2.8 0-5-2.3-5-5v-153c0-2.8 2.2-5.1 5-5.1h10.9c2.8 0 5 2.3 5 5.1v153c0 2.7-2.2 5-5 5z"/><path class="am" d="m392.6 487.2h-10.5c-2.7 0-4.9-2.2-4.9-4.8v-152.7c0-2.6 2.2-4.8 4.9-4.8h10.5c2.7 0 4.9 2.2 4.9 4.8v152.7c0 2.6-2.2 4.8-4.9 4.8z"/></g><path class="an" d="m391.4 495.5h-29.1c-7.4 0-13.5-6.1-13.5-13.5v-172.7c0-7.4 6.1-13.4 13.5-13.4h29.1c7.4 0 13.5 6 13.5 13.4v172.7c0 7.4-6.1 13.5-13.5 13.5z"/><path class="ao" d="m377.7 316.8l9.3 4.5c0.3 0.2 0.5 0.5 0.5 0.8v15.8c0 0.5-0.4 0.9-0.9 0.9h-4.2c-0.5 0-0.9-0.4-0.9-0.9v-7.9c0-0.4-0.4-0.8-0.9-0.8h-6.6c-0.5 0-0.9 0.4-0.9 0.8v7.9c0 0.5-0.4 0.9-0.9 0.9h-4.2c-0.5 0-0.9-0.4-0.9-0.9v-15.8c0-0.3 0.2-0.6 0.5-0.8l9.3-4.5c0.3-0.1 0.5-0.1 0.8 0z"/><path fill-rule="evenodd" class="ao" d="m375.7 467.7l-5.4 5.4c-0.5 0.5-1.4 0.5-1.9 0l-1.5-1.5c-0.5-0.5-0.5-1.4 0-1.9l5.4-5.4c-1.9-3.4-1.2-7.9 2.2-10.6 3-2.5 7.4-2.5 10.5 0 4 3.2 4.2 9 0.7 12.6-2.7 2.7-6.8 3.2-10 1.4zm7.5-3.9c1.9-1.9 1.9-5.1 0-7-1.9-1.9-5-1.9-7 0-1.9 1.9-1.9 5.1 0 7 2 1.9 5.1 1.9 7 0z"/><path class="ao" d="m368.6 371.1c0-1.3 1-2.3 2.3-2.3 1.3 0 2.4 1 2.4 2.3 0 1.3-1.1 2.4-2.4 2.4-1.3 0-2.3-1.1-2.3-2.4z"/><path fill-rule="evenodd" class="ao" d="m388.7 368.2v13c0 1.6-1.3 3-3 3h-17.7c-1.7 0-3-1.4-3-3v-13c0-1.7 1.3-3 3-3h17.7c1.7 0 3 1.3 3 3zm-21.3 0v11.2l3.2-3.3c0.9-0.8 2.2-0.8 3 0l1.4 1.4 4.4-5.3c0.4-0.4 1-0.7 1.6-0.7 0.6 0 1.2 0.2 1.6 0.7l3.7 4.4v-8.4c0-0.4-0.2-0.6-0.6-0.6h-17.7c-0.4 0-0.6 0.2-0.6 0.6z"/><path class="ao" d="m388.7 416.2c0 2-0.7 3.8-2.3 5.8-1.5 1.7-3.5 3.5-5.9 5.5-0.8 0.7-1.8 1.5-2.7 2.3-0.3 0.2-0.6 0.4-0.9 0.4-0.4 0-0.7-0.2-1-0.4-0.9-0.8-1.8-1.6-2.7-2.3-2.4-2-4.4-3.8-5.8-5.5-1.7-2-2.4-3.8-2.4-5.8 0-2 0.7-3.7 1.9-5.1 1.2-1.3 2.9-2 4.7-2q2.1 0 3.7 1.3 0.9 0.6 1.6 1.5 0.6-0.9 1.5-1.5 1.6-1.3 3.7-1.3c1.8 0 3.5 0.7 4.7 2 1.2 1.4 1.9 3.1 1.9 5.1z"/><path class="ap" d=""/><path class="aq" d="m415 60.3h65.4"/><path class="ap" d=""/><path class="ar" d=""/><path class="as" d="m168.3 379.4h65.4"/><path class="ar" d=""/><path class="E" d="m309.2 415.9h-22.6v-22.5h22.6z"/><path class="D" d="m337.6 415.9h-22.5v-22.5h22.5z"/><path class="at" d="m337.6 444.2h-22.5v-22.6h22.5z"/><path class="E" d="m443.9 333.2v22.6h-22.6v-22.6z"/><path class="D" d="m443.9 304.8v22.6h-22.6v-22.6z"/><path class="at" d="m472.1 304.8v22.6h-22.6v-22.6z"/><g clip-path="url(#cp1)" style="opacity:.3"><path class="au" d="m155.7 401.2c-16.6 17.7-34.4 34.1-51.1 51.8"/><path class="au" d="m163.3 401.2c-18.5 19.8-39.2 39.1-58.7 58.7"/><path class="au" d="m170.4 401.2c-22 22-44.1 44.1-65.9 65.9"/><path class="au" d="m177.3 401.4q-35.9 35.9-72.8 72.8"/><path class="au" d="m185.9 401.3c-26.8 26.1-53.9 52.6-81.3 79.7"/><path class="au" d="m191.5 401.4c-28.1 28.9-56 56-84.5 85.3-0.7 0.7-2.2 0.7-2.5 1.7"/><path class="au" d="m104.7 495.2c13-14.2 26.6-26.4 40.1-40.6 18.6-18.6 37.1-35 54.4-53.3"/><path class="au" d="m204 402.7c-32.8 33.3-67 65.4-99.4 99.7"/><path class="au" d="m204 409.8c-32.8 32.6-66.3 66.2-99.3 99.3"/><path class="au" d="m207.6 413.6c-34.2 34.5-69.2 68.1-102.9 102.7"/><path class="au" d="m214.7 413.6c-37 36.7-72.7 74.5-110.3 110.1"/><path class="au" d="m221.3 413.8c-37.9 37.9-75.1 75-113 112.9"/><path class="au" d="m228.2 413.8c-37.7 37.2-74.8 75-112.9 113"/><path class="au" d="m231.9 417c-36.4 36.1-72.1 73.3-109.5 109.8"/><path class="au" d="m232.2 423.8c-34.6 34.3-67.4 70-102.8 103"/><path class="au" d="m231.9 431.5c-32.1 31.6-63.5 63.8-95.4 95.3"/><path class="au" d="m232.1 438c-29.5 29.4-58.7 59.4-88.5 88.7"/><path class="au" d="m232 445.2c-27.2 27.2-54.3 54.3-81.4 81.6"/><path class="au" d="m232.1 452.3c-24.5 25.1-49.4 50.1-74.4 74.4"/><path class="au" d="m232 459.5c-22.2 22.2-45.1 45-67.2 67.3"/><path class="au" d="m231.8 466.8c-19.9 19.9-39.9 39.9-60 60"/><path class="au" d="m178.8 526.8q5.9-6 11.8-11.9c13.8-13.9 27.6-27.7 41.4-41.5"/><path class="au" d="m232 481.3c-15.1 15.4-30.8 31.1-46.2 45.5"/></g><path class="av" d="m255.3 404.9l-5.1-9c-0.8-1.2 0.1-2.8 1.6-2.8h10.3c1.4 0 2.3 1.6 1.6 2.8l-5.2 9c-0.7 1.2-2.5 1.2-3.2 0z"/><path class="av" d="m255.3 429.2l-5.1-9c-0.8-1.2 0.1-2.8 1.6-2.8h10.3c1.4 0 2.3 1.6 1.6 2.8l-5.2 9c-0.7 1.2-2.5 1.2-3.2 0z"/><path class="aw" d="m255.3 453.5l-5.1-9c-0.8-1.2 0.1-2.8 1.6-2.8h10.3c1.4 0 2.3 1.6 1.6 2.8l-5.2 9c-0.7 1.2-2.5 1.2-3.2 0z"/><path class="av" d="m516.4 106.7l5.2 8.9c0.7 1.3-0.2 2.8-1.6 2.8h-10.4c-1.4 0-2.3-1.5-1.6-2.8l5.2-8.9c0.7-1.3 2.5-1.3 3.2 0z"/><path class="av" d="m516.4 82.4l5.2 8.9c0.7 1.3-0.2 2.8-1.6 2.8h-10.4c-1.4 0-2.3-1.5-1.6-2.8l5.2-8.9c0.7-1.3 2.5-1.3 3.2 0z"/><path class="ax" d="m516.4 58l5.2 9c0.7 1.2-0.2 2.8-1.6 2.8h-10.4c-1.4 0-2.3-1.6-1.6-2.8l5.2-9c0.7-1.2 2.5-1.2 3.2 0z"/></svg>